<?xml version="1.0" standalone="no"?>
<!DOCTYPE svg PUBLIC "-//W3C//DTD SVG 20010904//EN"
 "http://www.w3.org/TR/2001/REC-SVG-20010904/DTD/svg10.dtd">
<svg version="1.0" xmlns="http://www.w3.org/2000/svg"
 width="700.000000pt" height="700.000000pt" viewBox="0 0 700.000000 700.000000"
 preserveAspectRatio="xMidYMid meet">
<metadata>
Created by potrace 1.11, written by Peter Selinger 2001-2013
</metadata>
<g transform="translate(0.000000,700.000000) scale(0.100000,-0.100000)"
fill="#000000" stroke="none">
<path d="M115 6569 c-122 -72 -150 -334 -63 -594 80 -238 253 -419 481 -500
l89 -32 -28 -22 c-70 -55 -144 -164 -187 -276 -28 -71 -29 -258 -3 -335 23
-68 72 -145 129 -206 l44 -47 -31 -56 c-58 -101 -129 -297 -151 -413 -18 -91
-27 -202 -26 -308 2 -142 4 -170 26 -290 29 -156 122 -381 218 -527 41 -61 50
-85 63 -160 13 -73 26 -134 48 -228 43 -179 136 -418 236 -612 76 -147 203
-343 306 -473 62 -77 324 -347 384 -395 273 -218 492 -350 775 -468 127 -53
412 -137 545 -161 54 -9 96 -16 130 -20 19 -3 55 -7 80 -10 100 -13 162 -16
325 -16 207 0 287 6 475 37 132 21 382 83 455 113 11 4 54 20 95 35 243 90
573 274 694 386 17 16 67 59 111 95 117 96 206 184 343 338 19 20 65 79 102
129 38 51 78 103 88 117 44 58 139 225 207 365 86 176 141 321 189 500 33 125
40 154 51 220 18 113 28 142 69 204 65 99 136 243 171 346 91 269 103 572 34
847 -34 135 -132 376 -160 394 -15 9 -10 18 44 75 52 57 114 150 122 185 2 10
9 39 15 64 16 65 14 186 -4 253 -29 107 -86 201 -174 285 -24 23 -43 44 -41
46 2 2 29 11 59 19 247 71 444 291 522 579 29 110 32 306 4 386 -23 67 -82
131 -122 134 -98 5 -128 -13 -232 -138 -154 -183 -294 -315 -408 -384 -21 -13
-41 -27 -44 -32 -7 -10 -322 -169 -380 -192 -143 -57 -367 -124 -488 -146 -79
-14 -102 -19 -137 -26 -16 -4 -39 -8 -50 -10 -11 -2 -33 -6 -50 -9 -53 -9 -89
-15 -140 -20 -27 -3 -57 -8 -65 -10 -8 -2 -44 -7 -80 -10 -36 -4 -78 -8 -95
-10 -148 -17 -204 -22 -335 -31 -47 -3 -107 -7 -135 -9 -292 -24 -1126 -24
-1445 0 -30 2 -91 7 -135 10 -44 3 -98 7 -120 10 -22 2 -71 7 -108 10 -37 4
-76 8 -85 10 -9 1 -48 6 -87 9 -38 4 -81 8 -95 10 -14 3 -59 10 -100 16 -151
23 -172 27 -315 56 -256 52 -466 124 -690 236 -273 137 -452 280 -640 513 -97
121 -131 146 -203 151 -34 3 -65 0 -77 -7z"/>
</g>
</svg>
