<?xml version="1.0" encoding="UTF-8"?>
<svg width="95px" height="95px" viewBox="0 0 95 95" version="1.1" xmlns="http://www.w3.org/2000/svg" xmlns:xlink="http://www.w3.org/1999/xlink">
    <!-- Generator: Sketch 63.1 (92452) - https://sketch.com -->
    <title>genius</title>
    <desc>Created with Sketch.</desc>
    <g id="Design-System" stroke="none" stroke-width="1" fill="none" fill-rule="evenodd">
        <g id="Tangelo" transform="translate(-2111.000000, -5637.000000)">
            <g id="genius" transform="translate(2111.000000, 5637.000000)">
                <circle id="Oval" fill="#F37121" fill-rule="nonzero" cx="47.2011619" cy="47.2243595" r="47.1413363"></circle>
                <g id="Group" transform="translate(25.029069, 24.418604)" fill-rule="nonzero">
                    <path d="M22.1720926,45.5870921 L22.1720926,45.5870921 C21.3626159,45.5870921 20.7057554,44.9302317 20.7057554,44.1207549 L20.7057554,1.48953485 C20.7057554,0.680058126 21.3626159,0.023197674 22.1720926,0.023197674 L22.1720926,0.023197674 C22.9815693,0.023197674 23.6384298,0.680058126 23.6384298,1.48953485 L23.6384298,44.1207549 C23.6372088,44.9302317 22.9815693,45.5870921 22.1720926,45.5870921 Z" id="Path" fill="#60179C"></path>
                    <path d="M12.8197672,13.8526741 L18.3774415,14.8013369 L17.6668601,23.6665112 L20.1416856,25.540639 L20.7045345,26.6687785 C20.7045345,26.6687785 22.6067437,27.4440692 23.6372088,26.6687785 C24.6676739,25.8934879 29.4109878,23.2574995 29.4109878,23.2574995 L26.7151739,19.2699415 L28.8383715,15.3507555 L32.3448831,17.4129066 C32.3448831,17.4129066 31.7258715,21.0158717 33.5133133,21.9303484 C35.3007551,22.8448251 38.5288946,23.6665112 38.5288946,23.6665112 L39.151569,26.0766274 L36.6071504,27.9324413 L32.2752901,26.7005227 C32.2752901,26.7005227 26.8226157,29.6393017 23.6359879,29.6881389 C20.4493601,29.7369762 18.5764531,29.6881389 18.5764531,29.6881389 L13.872209,28.1155808 L12.4534881,26.5112785 L6.44895336,27.6113367 L4.15726736,24.4491274 L6.99959288,22.4455809 L11.5829649,20.8278484 L12.8197672,13.8526741 Z" id="Path" fill="#FDC400"></path>
                    <path d="M39.4433713,29.6588366 C42.1709294,29.1313948 44.2623828,26.6968599 44.2623828,23.9119181 C44.2623828,20.6862205 41.5250573,18.0465694 38.2993597,18.0465694 C37.4776737,18.0465694 36.8330225,17.4019183 36.8330225,16.5802322 C36.8330225,15.7585462 37.4776737,15.113895 38.2993597,15.113895 C38.9733132,15.113895 39.6484876,15.201802 40.2931387,15.3483136 C40.8791852,14.4106392 41.2320341,13.3252323 41.2320341,12.1812207 C41.2320341,8.95552308 38.592383,6.31587197 35.3666853,6.31587197 C35.3080807,6.31587197 35.2787784,6.31587197 35.2201737,6.34517429 C34.5169179,9.65877888 31.5842436,12.1812207 28.0362204,12.1812207 C27.2145343,12.1812207 26.5698832,11.5365695 26.5698832,10.7148835 C26.5698832,9.89319748 27.2145343,9.24854633 28.0362204,9.24854633 C30.4707552,9.24854633 32.4352319,7.28406962 32.4352319,4.84953479 C32.4352319,2.41499995 30.4707552,0.35284883 28.0362204,0.35284883 C25.6016855,0.35284883 23.6372088,2.41499995 23.6372088,4.84953479 L23.6372088,26.6675576 C26.0424413,26.3159297 28.2120343,25.1426158 29.8248831,23.2953484 C28.7101738,21.8290112 28.0362204,20.0403484 28.0362204,18.0465694 C28.0362204,17.2248834 28.6808715,16.5802322 29.5025576,16.5802322 C30.3242436,16.5802322 30.9688947,17.2248834 30.9688947,18.0465694 C30.9688947,21.272267 33.6085458,23.9119181 36.8342435,23.9119181 C37.6559295,23.9119181 38.3005806,24.5565693 38.3005806,25.3782553 C38.3005806,26.1987204 37.6559295,26.8445925 36.8342435,26.8445925 C35.0455807,26.8445925 33.3741272,26.3171506 31.995697,25.3782553 C29.8261041,27.7822669 26.8641274,29.336511 23.6384298,29.6893599 L23.6384298,40.1393015 C23.6384298,42.5726154 25.6029065,44.5383131 28.0374413,44.5383131 C30.4719761,44.5383131 32.4364528,42.5738364 32.4364528,40.1393015 C32.4364528,37.7047667 30.4719761,35.74029 28.0374413,35.74029 C27.2157553,35.74029 26.5711041,35.0956388 26.5711041,34.2739528 C26.5711041,33.4522668 27.2157553,32.8076156 28.0374413,32.8076156 C31.5561622,32.8076156 34.5181388,35.2995342 35.1920923,38.6143597 C36.9514528,38.6729643 38.6522085,37.9990109 39.8255225,36.649883 C40.8816271,35.4179644 41.3504643,33.7953482 41.2039527,32.1824994 C40.8230224,32.329011 40.4420922,32.5438947 40.0306387,32.6318017 C39.9134294,32.661104 39.8255225,32.661104 39.7376155,32.661104 C39.063662,32.661104 38.4470923,32.0945924 38.3005806,31.3901157 C38.1528481,30.597732 38.6522085,29.8346506 39.4433713,29.6588366 Z M20.7057554,26.6675576 L20.7057554,4.84953479 C20.7057554,2.41499995 18.7412787,0.35284883 16.3067439,0.35284883 C13.872209,0.35284883 11.9077323,2.41499995 11.9077323,4.84953479 C11.9077323,7.28284869 13.872209,9.24854633 16.3067439,9.24854633 C17.1284299,9.24854633 17.773081,9.89319748 17.773081,10.7148835 C17.773081,11.5353486 17.1284299,12.1812207 16.3067439,12.1812207 C12.788023,12.1812207 9.85534864,9.6880812 9.15209284,6.37447662 C7.12901149,6.34517429 5.19383711,7.2547673 4.07912783,8.95552308 C2.81790692,10.8320928 2.87651157,13.1787207 4.02052318,15.377616 C4.66517433,15.201802 5.34034873,15.113895 6.04360453,15.113895 C6.86529056,15.113895 7.50994171,15.7585462 7.50994171,16.5802322 C7.50994171,17.4006973 6.86529056,18.0465694 6.04360453,18.0465694 C2.81790692,18.0465694 0.0805813937,20.6862205 0.0805813937,23.9119181 C0.0805813937,26.6980809 2.17203484,29.1313948 4.89959293,29.6588366 C5.69197663,29.8346506 6.19011616,30.597732 6.04360453,31.3888947 C5.89709291,32.0921505 5.28174408,32.6598831 4.60656968,32.6598831 C4.5186627,32.6598831 4.43075573,32.6598831 4.31354643,32.6305807 C3.90331388,32.5426738 3.52238365,32.3277901 3.1402325,32.1812784 C2.99372087,33.7941272 3.46255807,35.4167435 4.5186627,36.6486621 C5.69197663,37.9977899 7.36343009,38.6717434 9.15209284,38.6131388 C9.82604632,35.2995342 12.788023,32.8063947 16.3067439,32.8063947 C17.1284299,32.8063947 17.773081,33.4510458 17.773081,34.2727319 C17.773081,35.093197 17.1284299,35.7390691 16.3067439,35.7390691 C13.872209,35.7390691 11.9077323,37.7035458 11.9077323,40.1380806 C11.9077323,42.5713945 13.872209,44.5370921 16.3067439,44.5370921 C18.7412787,44.5370921 20.7057554,42.5726154 20.7057554,40.1380806 L20.7057554,29.6881389 C17.4800578,29.336511 14.5180811,27.7822669 12.3484881,25.3770344 C10.9700579,26.3159297 9.29860447,26.8433716 7.50994171,26.8433716 C6.68825568,26.8433716 6.04360453,26.1987204 6.04360453,25.3770344 C6.04360453,24.5553483 6.68825568,23.9106972 7.50994171,23.9106972 C10.7356393,23.9106972 13.3752904,21.2710461 13.3752904,18.0453485 C13.3752904,17.2236624 14.0199416,16.5790113 14.8416276,16.5790113 C15.6633136,16.5790113 16.3079648,17.2236624 16.3079648,18.0453485 C16.3079648,20.0391275 15.6340113,21.8277903 14.519302,23.2941274 C16.1309299,25.1426158 18.3005229,26.3159297 20.7057554,26.6675576 Z" id="Shape" fill="#FFFFFF"></path>
                </g>
                <g id="Group" transform="translate(17.581395, 12.941860)">
                    <circle id="Oval" fill="#FDC400" fill-rule="nonzero" cx="29.7015692" cy="66.7629057" r="1.78744182"></circle>
                    <polygon id="Path" stroke="#FDC400" stroke-width="1.19999998" points="29.7491855 1.80087206 1.82162787 18.910988 1.82162787 52.1874408 29.7491855 66.7629057 57.5827314 51.9127315 57.5827314 18.0856392"></polygon>
                    <circle id="Oval" fill="#FDC400" fill-rule="nonzero" cx="57.4166849" cy="18.1466857" r="1.78744182"></circle>
                    <circle id="Oval" fill="#FDC400" fill-rule="nonzero" cx="1.82162787" cy="18.7730229" r="1.78744182"></circle>
                    <circle id="Oval" fill="#FDC400" fill-rule="nonzero" cx="29.7015692" cy="1.80087206" r="1.78744182"></circle>
                    <circle id="Oval" fill="#FDC400" fill-rule="nonzero" cx="1.82162787" cy="52.0494757" r="1.78744182"></circle>
                    <circle id="Oval" fill="#FDC400" fill-rule="nonzero" cx="57.4166849" cy="52.0494757" r="1.78744182"></circle>
                </g>
            </g>
        </g>
    </g>
</svg>