<?xml version="1.0" encoding="UTF-8"?>
<svg width="95px" height="95px" viewBox="0 0 95 95" version="1.1" xmlns="http://www.w3.org/2000/svg" xmlns:xlink="http://www.w3.org/1999/xlink">
    <!-- Generator: Sketch 63.1 (92452) - https://sketch.com -->
    <title>numbergod</title>
    <desc>Created with Sketch.</desc>
    <g id="Design-System" stroke="none" stroke-width="1" fill="none" fill-rule="evenodd">
        <g id="Tangelo" transform="translate(-1906.000000, -5852.000000)">
            <g id="numbergod" transform="translate(1906.000000, 5852.000000)">
                <circle id="Oval" fill="#60179C" fill-rule="nonzero" cx="47.1413363" cy="47.1413363" r="47.1413363"></circle>
                <g id="Group" transform="translate(21.693488, 56.587673)" fill-rule="nonzero">
                    <path d="M26.4184878,1.6531395 L14.7634881,0.0598255802 C13.8172672,-0.0695930219 12.8551742,0.0915697656 12.0029649,0.522558129 L3.42226737,4.84709293 L7.06186032,15.9001741 C8.87860447,14.1456974 11.1641858,12.9528486 13.6438951,12.4656974 L29.9481971,15.9001741 C29.9481971,15.9001741 45.1194758,9.78941841 45.1194758,6.98860451 C45.0144758,5.52715105 43.8961038,4.34162782 42.4431968,4.14994178 C42.3504061,4.13773248 42.2527317,4.12796503 42.1550573,4.12186038 L29.9481971,8.82610448 L22.1904065,6.44284871 C22.1904065,6.44284871 24.2757553,6.65284871 27.7993599,6.13151151 C27.7993599,6.13151151 29.6624994,5.84703477 28.5270343,3.52604644 L28.5270343,3.52482551 C28.2755227,2.54319762 27.4233134,1.78622089 26.4184878,1.6531395 L26.4184878,1.6531395 Z" id="Path" fill="#FDC400"></path>
                    <path d="M22.2599996,6.43674406 L17.335988,6.23040685 C16.9831392,6.21575569 16.6779066,6.4709301 16.6278485,6.82011614 C16.6241857,6.84331382 16.6254066,6.8628487 16.6229648,6.88604637 C16.6070927,7.26331381 16.9001159,7.58319752 17.2786043,7.59906962 C17.2786043,7.59906962 17.2786043,7.59906962 17.2786043,7.59906962 L26.7908716,7.82005798 L22.2599996,6.43674406 Z" id="Path" fill="#F37121"></path>
                    <path d="M7.13023242,17.2944764 L7.1094766,17.301802 C5.83970919,17.7718601 4.43075573,17.1235462 3.9606976,15.8549997 L0.267383716,5.88122081 C-0.202674415,4.6114534 0.445639526,3.20249994 1.71418601,2.73244181 L1.73494183,2.72511622 C3.00470924,2.25505809 4.4136627,2.90337204 4.88372083,4.17191852 L8.57703471,14.1456974 C9.04709284,15.4154648 8.3987789,16.8244183 7.13023242,17.2944764 Z" id="Path" fill="#F37121"></path>
                </g>
                <g id="Group" transform="translate(38.420232, 19.105116)" fill="#FDC400" fill-rule="nonzero">
                    <path d="M10.4206393,0.913255796 L10.4206393,7.48674404 C10.4206393,7.95924403 10.0384882,8.34139518 9.56598818,8.34139518 C9.09348819,8.34139518 8.71133704,7.95924403 8.71133704,7.48674404 L8.71133704,0.913255796 C8.71133704,0.440755805 9.09348819,0.05860465 9.56598818,0.05860465 C10.0384882,0.05860465 10.4206393,0.441976735 10.4206393,0.913255796 Z" id="Path"></path>
                    <path d="M5.21703478,8.48302309 C5.21703478,8.95552308 4.83488362,9.33767423 4.36238363,9.33767423 C4.0779069,9.33767423 3.81296504,9.19726726 3.65424411,8.96162773 L0.208779066,3.84837202 C-0.0695930219,3.46744179 0.0134302323,2.93267436 0.394360457,2.65430227 C0.775290682,2.37593019 1.31005811,2.45895344 1.5884302,2.83988366 C1.60186043,2.85697669 1.61406974,2.87529064 1.62505811,2.89360459 L5.06930222,8.00686031 C5.16575571,8.14726728 5.21703478,8.31331379 5.21703478,8.48302309 Z" id="Path"></path>
                    <path d="M19.068488,3.37098831 C19.068488,3.5406976 19.0172089,3.70674411 18.9219764,3.84715109 L15.4765113,8.9604068 C15.1993602,9.34255795 14.6645927,9.42802307 14.2824416,9.15087191 C13.9186044,8.88715099 13.82093,8.3865696 14.0602323,8.00563938 L17.5044764,2.89238366 C17.7681973,2.50046507 18.298081,2.396686 18.6899996,2.66040692 C18.9268601,2.82034878 19.068488,3.08651157 19.068488,3.37098831 L19.068488,3.37098831 Z" id="Path"></path>
                </g>
                <circle id="Oval" fill="#FCC400" fill-rule="nonzero" cx="34.4863947" cy="44.5480805" r="1"></circle>
                <circle id="Oval" fill="#FCC400" fill-rule="nonzero" cx="32.1483133" cy="34.7098249" r="1"></circle>
                <circle id="Oval" fill="#FCC400" fill-rule="nonzero" cx="26.1144762" cy="49.1986037" r="1"></circle>
                <circle id="Oval" fill="#FCC400" fill-rule="nonzero" cx="68.4502312" cy="27.447732" r="1"></circle>
                <circle id="Oval" fill="#FCC400" fill-rule="nonzero" cx="73.9236613" cy="52.8003478" r="1"></circle>
                <circle id="Oval" fill="#F7F0DC" fill-rule="nonzero" cx="69.2902312" cy="38.8316853" r="1"></circle>
                <circle id="Oval" fill="#FCC400" fill-rule="nonzero" cx="60.2980802" cy="50.2095339" r="1"></circle>
                <circle id="Oval" fill="#FCC400" fill-rule="nonzero" cx="60.2980802" cy="31.2338366" r="1"></circle>
                <circle id="Oval" fill="#F7F0DC" fill-rule="nonzero" cx="31.3827901" cy="24.07186" r="1"></circle>
                <text id="8" font-family="Baloo-Regular, Baloo" font-size="35.5199993" font-weight="normal" letter-spacing="-0.408679413" fill="#FFFFFF">
                    <tspan x="38.2238552" y="52.0565113">8</tspan>
                </text>
            </g>
        </g>
    </g>
</svg>