<?xml version="1.0" encoding="UTF-8"?>
<svg width="95px" height="95px" viewBox="0 0 95 95" version="1.1" xmlns="http://www.w3.org/2000/svg" xmlns:xlink="http://www.w3.org/1999/xlink">
    <!-- Generator: sketchtool 62 (101010) - https://sketch.com -->
    <title>761A1BC4-9EB9-44B5-B034-47175C7C05E3</title>
    <desc>Created with sketchtool.</desc>
    <g id="Page-1" stroke="none" stroke-width="1" fill="none" fill-rule="evenodd">
        <g id="Monthly_Pricing" transform="translate(-95.000000, -973.000000)" fill-rule="nonzero">
            <g id="Group-36" transform="translate(95.000000, 973.000000)">
                <g id="Group">
                    <circle id="Oval" fill="#60179C" cx="47.1718595" cy="47.1791851" r="47.1413363"></circle>
                    <path d="M44.3673828,23.0120926 L33.7343017,51.2986036 C33.4583714,52.0336036 34.0016854,52.8174408 34.7867435,52.8174408 L38.1833713,52.8174408 C38.9879643,52.8174408 39.5312783,53.636685 39.2187202,54.3777896 L31.1459296,73.5061032 C30.9139529,74.0543009 31.628197,74.506045 32.0249994,74.0628474 L57.4765105,45.5944177 C58.1236035,44.8704061 57.6095919,43.7215108 56.6389524,43.7215108 L50.171685,43.7215108 C49.2816269,43.7215108 48.7444176,42.7349992 49.227906,41.9877899 L60.8462779,24.0169181 C61.3297662,23.2697088 60.7925569,22.2831972 59.9024988,22.2831972 L45.4186037,22.2831972 C44.9509875,22.2844182 44.5322084,22.5737786 44.3673828,23.0120926 Z" id="Path" fill="#FDC400"></path>
                </g>
            </g>
        </g>
    </g>
</svg>