<?xml version="1.0" encoding="UTF-8"?>
<svg width="95px" height="95px" viewBox="0 0 95 95" version="1.1" xmlns="http://www.w3.org/2000/svg" xmlns:xlink="http://www.w3.org/1999/xlink">
    <!-- Generator: Sketch 63.1 (92452) - https://sketch.com -->
    <title>whiz</title>
    <desc>Created with Sketch.</desc>
    <g id="Design-System" stroke="none" stroke-width="1" fill="none" fill-rule="evenodd">
        <g id="Tangelo" transform="translate(-1918.000000, -5637.000000)">
            <g id="whiz" transform="translate(1918.000000, 5637.000000)">
                <circle id="Oval" fill="#FDC400" fill-rule="nonzero" cx="47.1657549" cy="47.1413363" r="47.1413363"></circle>
                <g id="Group" transform="translate(15.017442, 15.750000)">
                    <g transform="translate(6.470930, 5.494186)">
                        <path d="M50.7198827,40.3285457 C50.7198827,47.0631967 37.6266272,50.7125571 25.4026739,50.7125571 C13.1787207,50.7125571 0.0854651146,47.0631967 0.0854651146,40.3285457 C0.0854651146,36.8281388 3.80441853,33.8307551 10.3315114,31.9029063 L25.4026739,31.873604 L40.3847085,31.873604 C46.971627,33.8014528 50.7198827,36.7976155 50.7198827,40.3285457 Z" id="Path" fill="#60179C" fill-rule="nonzero"></path>
                        <path d="M47.4160456,2.39180228 L44.7751735,6.33784871 C42.7569759,9.33401144 39.6130806,11.2923835 36.1114528,11.82593 L40.1466271,30.0922668 L37.8024411,32.9699993 L25.401453,32.940697 L12.7623835,32.8808714 L10.2997672,29.914011 L14.1566858,6.18889523 C14.8098834,2.62866274 17.8658717,0.0769186031 21.4554066,0.0769186031 L46.1694758,0.0769186031 C46.7030223,0.0769186031 47.2072665,0.373604644 47.4746502,0.848546495 C47.7432549,1.3540116 47.7127316,1.91808136 47.4160456,2.39180228 Z" id="Path" fill="#60179C" fill-rule="nonzero"></path>
                        <path d="M41.3638945,37.2432551 C39.554476,40.7741852 30.9505808,41.6642434 28.3695343,41.8119759 L22.4358135,41.8119759 C16.7389532,41.5445922 10.77593,40.1502899 9.3523254,37.1248248 C9.23389517,36.8574411 9.20337191,36.5607551 9.23389517,36.264069 C9.82726725,32.644011 10.0458138,31.244825 10.6684882,27.5954646 C14.8819183,29.4647087 19.7363368,30.8358133 25.4038948,30.8358133 C30.9224994,30.8358133 35.5070923,29.5233134 39.6606969,27.7737204 C40.4616271,31.3632552 40.6240108,32.3192435 41.5140689,36.2347667 C41.5714527,36.5900574 41.5421503,36.946569 41.3638945,37.2432551 Z" id="Path" fill="#F37121" fill-rule="nonzero"></path>
                        <path d="M29.6454064,27.7578483 L21.8912786,27.7578483 C18.6729066,27.7578483 16.0759881,30.3547668 16.0759881,33.5731389 L16.0759881,37.4508132 C16.0759881,40.6691852 18.6729066,43.2661038 21.8912786,43.2661038 L29.6454064,43.2661038 C32.8637784,43.2661038 35.4606974,40.6679643 35.4606974,37.4508132 L35.4606974,33.5731389 C35.4619179,30.3547668 32.8637784,27.7578483 29.6454064,27.7578483 Z M32.74779,37.8378481 C32.74779,39.1405806 31.7246505,40.1637201 30.421918,40.1637201 L21.1172089,40.1637201 C19.8144764,40.1637201 18.7913368,39.1405806 18.7913368,37.8378481 L18.7913368,33.1848831 C18.7913368,31.8821505 19.8144764,30.859011 21.1172089,30.859011 L30.421918,30.859011 C31.7246505,30.859011 32.74779,31.8821505 32.74779,33.1848831 L32.74779,37.8378481 Z" id="Shape" fill="#FDC400" fill-rule="nonzero"></path>
                        <g transform="translate(23.075581, 32.476744)">
                            <line x1="5.23168594" y1="0.23197674" x2="0.755755799" y2="5.15232548" id="Path" stroke="#FFFFFF" stroke-width="1.91999996" stroke-linecap="round"></line>
                            <circle id="Oval" fill="#FFFFFF" fill-rule="nonzero" cx="1.08540696" cy="1.16354649" r="1.08174416"></circle>
                            <circle id="Oval" fill="#FFFFFF" fill-rule="nonzero" cx="4.95819758" cy="4.30255805" r="1.08174416"></circle>
                        </g>
                    </g>
                    <circle id="Oval" fill="#F37121" fill-rule="nonzero" cx="1.43947672" cy="35.2580226" r="1.32715114"></circle>
                    <circle id="Oval" fill="#F7F0DC" fill-rule="nonzero" cx="61.1136616" cy="13.3606393" r="1.20017439"></circle>
                    <circle id="Oval" fill="#F7F0DC" fill-rule="nonzero" cx="33.5731389" cy="1.31494183" r="1.20017439"></circle>
                    <circle id="Oval" fill="#F7F0DC" fill-rule="nonzero" cx="12.35093" cy="58.6486035" r="1.20017439"></circle>
                    <circle id="Oval" fill="#F37121" fill-rule="nonzero" cx="51.3767432" cy="19.8852903" r="1.17087207"></circle>
                    <circle id="Oval" fill="#F37121" fill-rule="nonzero" cx="33.5731389" cy="62.2869755" r="1.34912788"></circle>
                    <circle id="Oval" fill="#F7F0DC" fill-rule="nonzero" cx="11.1507556" cy="27.1180809" r="1.56279067"></circle>
                    <polygon id="Path" fill="#F37121" fill-rule="nonzero" points="13.172616 9.05441842 13.172616 6.08877895 11.529244 6.08877895 11.529244 9.05441842 8.56482541 9.05441842 8.56482541 10.6977905 11.529244 10.6977905 11.529244 13.662209 13.172616 13.662209 13.172616 10.6977905 16.1382555 10.6977905 16.1382555 9.05441842"></polygon>
                    <polygon id="Path" fill="#F37121" fill-rule="nonzero" points="58.2603477 32.014011 58.2603477 28.1522087 56.121278 28.1522087 56.121278 32.014011 52.2594757 32.014011 52.2594757 34.1530807 56.121278 34.1530807 56.121278 38.013662 58.2603477 38.013662 58.2603477 34.1530807 62.120929 34.1530807 62.120929 32.014011"></polygon>
                </g>
            </g>
        </g>
    </g>
</svg>