<?xml version="1.0" encoding="UTF-8"?>
<svg width="14px" height="14px" viewBox="0 0 14 14" version="1.1" xmlns="http://www.w3.org/2000/svg" xmlns:xlink="http://www.w3.org/1999/xlink">
    <!-- Generator: sketchtool 62 (101010) - https://sketch.com -->
    <title>7631BDCA-C37B-4CA1-8A68-4C6310A95B76</title>
    <desc>Created with sketchtool.</desc>
    <g id="Page-1" stroke="none" stroke-width="1" fill="none" fill-rule="evenodd">
        <g id="FAQ's" transform="translate(-320.000000, -1866.000000)" fill="#F37121">
            <path d="M327.705373,1879.77398 L333.779703,1873.5418 C334.073432,1873.24363 334.073432,1872.75637 333.779703,1872.455 L327.705373,1866.22602 C327.414787,1865.92466 326.939834,1865.92466 326.646135,1866.22602 L325.952457,1866.93773 C325.652503,1867.24229 325.658728,1867.7392 325.964968,1868.03733 L329.73017,1871.71766 L320.749916,1871.71766 C320.334344,1871.71766 320,1872.06069 320,1872.48706 L320,1873.51294 C320,1873.93931 320.334344,1874.28234 320.749916,1874.28234 L329.73017,1874.28234 L325.964968,1877.96267 C325.66187,1878.2608 325.655615,1878.75771 325.952457,1879.06227 L326.646135,1879.77398 C326.936721,1880.07534 327.411674,1880.07534 327.705373,1879.77398 Z" id="arrow-right"></path>
        </g>
    </g>
</svg>