<?xml version="1.0" encoding="UTF-8"?>
<svg width="105px" height="105px" viewBox="0 0 105 105" version="1.1" xmlns="http://www.w3.org/2000/svg" xmlns:xlink="http://www.w3.org/1999/xlink">
    <!-- Generator: sketchtool 62 (101010) - https://sketch.com -->
    <title>0478DCFB-5B69-4679-B425-030F652B7645</title>
    <desc>Created with sketchtool.</desc>
    <g id="Page-1" stroke="none" stroke-width="1" fill="none" fill-rule="evenodd">
        <g id="Teaching-Methods" transform="translate(-172.000000, -520.000000)">
            <g id="Group" transform="translate(172.000000, 520.000000)">
                <circle id="Oval" fill="#F37121" fill-rule="nonzero" cx="52.1697052" cy="52.1953447" r="52.1035822"></circle>
                <g transform="translate(27.663708, 26.988984)" fill-rule="nonzero">
                    <path d="M24.5059971,50.3857334 L24.5059971,50.3857334 C23.6113123,50.3857334 22.8853086,49.6597297 22.8853086,48.7650449 L22.8853086,1.646328 C22.8853086,0.751643192 23.6113123,0.0256395344 24.5059971,0.0256395344 L24.5059971,0.0256395344 C25.4006819,0.0256395344 26.1266855,0.751643192 26.1266855,1.646328 L26.1266855,48.7650449 C26.1253361,49.6597297 25.4006819,50.3857334 24.5059971,50.3857334 Z" id="Path" fill="#60179C"></path>
                    <path d="M14.1692164,15.3108504 L20.311909,16.3593724 L19.5265296,26.1577229 L22.2618631,28.2291273 L22.8839592,29.4760184 C22.8839592,29.4760184 24.986401,30.3329186 26.1253361,29.4760184 C27.2642712,28.6191182 32.5068812,25.7056574 32.5068812,25.7056574 L29.5272975,21.2983564 L31.8739896,16.9666245 L35.7496076,19.2458442 C35.7496076,19.2458442 35.0654369,23.2280687 37.0410305,24.2388061 C39.0166241,25.2495436 42.5845677,26.1577229 42.5845677,26.1577229 L43.2727868,28.8215355 L40.4605347,30.8726983 L35.672689,29.5111041 C35.672689,29.5111041 29.646049,32.7592282 26.1239866,32.8132062 C22.6019243,32.8671842 20.5318692,32.8132062 20.5318692,32.8132062 L15.3324416,31.0751157 L13.7643816,29.3019394 L7.12779056,30.5177932 L4.59487445,27.0227198 L7.73639214,24.8082737 L12.8022243,23.0202535 L14.1692164,15.3108504 Z" id="Path" fill="#FDC400"></path>
                    <path d="M43.5953051,32.7808194 C46.6099746,32.1978574 48.921581,29.5070557 48.921581,26.4289621 C48.921581,22.8637174 45.896116,19.9462083 42.3308713,19.9462083 C41.422692,19.9462083 40.7101828,19.2336991 40.7101828,18.3255198 C40.7101828,17.4173405 41.422692,16.7048314 42.3308713,16.7048314 C43.0757672,16.7048314 43.8220126,16.8019917 44.5345218,16.9639256 C45.1822574,15.9275486 45.5722482,14.7278883 45.5722482,13.4634544 C45.5722482,9.89820972 42.6547391,6.9807006 39.0894943,6.9807006 C39.0247208,6.9807006 38.992334,6.9807006 38.9275604,7.01308738 C38.1502777,10.6754924 34.9089008,13.4634544 30.9874015,13.4634544 C30.0792222,13.4634544 29.366713,12.7509453 29.366713,11.842766 C29.366713,10.9345867 30.0792222,10.2220775 30.9874015,10.2220775 C33.6782031,10.2220775 35.8494669,8.05081379 35.8494669,5.36001213 C35.8494669,2.66921047 33.6782031,0.389990812 30.9874015,0.389990812 C28.2965998,0.389990812 26.1253361,2.66921047 26.1253361,5.36001213 L26.1253361,29.4746689 C28.783751,29.0860276 31.1817221,27.7892069 32.9643445,25.7474903 C31.7322974,24.1268018 30.9874015,22.1498588 30.9874015,19.9462083 C30.9874015,19.038029 31.6999106,18.3255198 32.6080899,18.3255198 C33.5162692,18.3255198 34.2287784,19.038029 34.2287784,19.9462083 C34.2287784,23.511453 37.1462875,26.4289621 40.7115322,26.4289621 C41.6197115,26.4289621 42.3322207,27.1414713 42.3322207,28.0496506 C42.3322207,28.9564805 41.6197115,29.6703391 40.7115322,29.6703391 C38.7345892,29.6703391 36.8871933,29.087377 35.3636651,28.0496506 C32.965694,30.706716 29.6919303,32.4245648 26.1266855,32.8145557 L26.1266855,44.3644912 C26.1266855,47.0539434 28.2979493,49.2265565 30.9887509,49.2265565 C33.6795526,49.2265565 35.8508163,47.0552928 35.8508163,44.3644912 C35.8508163,41.6736895 33.6795526,39.5024258 30.9887509,39.5024258 C30.0805716,39.5024258 29.3680625,38.7899166 29.3680625,37.8817373 C29.3680625,36.973558 30.0805716,36.2610489 30.9887509,36.2610489 C34.8778634,36.2610489 38.1516271,39.0152746 38.8965231,42.6790291 C40.8410794,42.7438027 42.7208621,41.9989068 44.0176827,40.5077654 C45.1849563,39.1461712 45.7031447,37.3527532 45.5412108,35.5701309 C45.1201827,35.7320648 44.6991546,35.9695678 44.2443902,36.0667282 C44.1148431,36.0991149 44.0176827,36.0991149 43.9205224,36.0991149 C43.1756264,36.0991149 42.4941546,35.4729705 42.3322207,34.6943384 C42.1689374,33.8185458 42.7208621,32.9751401 43.5953051,32.7808194 Z M22.8853086,29.4746689 L22.8853086,5.36001213 C22.8853086,2.66921047 20.7140449,0.389990812 18.0232432,0.389990812 C15.3324416,0.389990812 13.1611778,2.66921047 13.1611778,5.36001213 C13.1611778,8.04946434 15.3324416,10.2220775 18.0232432,10.2220775 C18.9314225,10.2220775 19.6439317,10.9345867 19.6439317,11.842766 C19.6439317,12.7495958 18.9314225,13.4634544 18.0232432,13.4634544 C14.1341307,13.4634544 10.8927538,10.7078792 10.115471,7.04547416 C7.87943375,7.01308738 5.7405568,8.01842701 4.5085097,9.89820972 C3.1145287,11.9723131 3.17930226,14.5659544 4.44373614,16.9963124 C5.15624531,16.8019917 5.9024907,16.7048314 6.67977343,16.7048314 C7.58795273,16.7048314 8.30046189,17.4173405 8.30046189,18.3255198 C8.30046189,19.2323497 7.58795273,19.9462083 6.67977343,19.9462083 C3.1145287,19.9462083 0.0890636457,22.8637174 0.0890636457,26.4289621 C0.0890636457,29.5084052 2.40067009,32.1978574 5.41533955,32.7808194 C6.29113207,32.9751401 6.84170733,33.8185458 6.67977343,34.6929889 C6.51783953,35.4702716 5.83771714,36.0977655 5.09147175,36.0977655 C4.99431141,36.0977655 4.89715107,36.0977655 4.76760394,36.0653787 C4.31418902,35.9682184 3.89316088,35.7307153 3.47078328,35.5687814 C3.30884938,37.3514038 3.82703787,39.1448217 4.99431141,40.506416 C6.29113207,41.9975573 8.13852799,42.7424533 10.115471,42.6776797 C10.860367,39.0152746 14.1341307,36.2596994 18.0232432,36.2596994 C18.9314225,36.2596994 19.6439317,36.9722086 19.6439317,37.8803879 C19.6439317,38.7872177 18.9314225,39.5010763 18.0232432,39.5010763 C15.3324416,39.5010763 13.1611778,41.6723401 13.1611778,44.3631417 C13.1611778,47.0525939 15.3324416,49.2252071 18.0232432,49.2252071 C20.7140449,49.2252071 22.8853086,47.0539434 22.8853086,44.3631417 L22.8853086,32.8132062 C19.3200639,32.4245648 16.0463002,30.706716 13.648329,28.0483012 C12.1248009,29.0860276 10.2774049,29.6689896 8.30046189,29.6689896 C7.39228259,29.6689896 6.67977343,28.9564805 6.67977343,28.0483012 C6.67977343,27.1401219 7.39228259,26.4276127 8.30046189,26.4276127 C11.8657066,26.4276127 14.7832157,23.5101036 14.7832157,19.9448588 C14.7832157,19.0366795 15.4957249,18.3241704 16.4039042,18.3241704 C17.3120835,18.3241704 18.0245927,19.0366795 18.0245927,19.9448588 C18.0245927,22.1485094 17.2796967,24.1254524 16.0476496,25.7461409 C17.8289225,27.7892069 20.2268937,29.0860276 22.8853086,29.4746689 Z" id="Shape" fill="#FFFFFF"></path>
                </g>
                <g transform="translate(19.432068, 14.304161)">
                    <circle id="Oval" fill="#FDC400" fill-rule="nonzero" cx="32.8280501" cy="73.7905799" r="1.9755936"></circle>
                    <polygon id="Path" stroke="#FDC400" stroke-width="1.32631576" points="32.8806787 1.99043754 2.01337817 20.9016183 2.01337817 57.6808556 32.8806787 73.7905799 63.6440716 57.3772296 63.6440716 19.9893907"></polygon>
                    <circle id="Oval" fill="#FDC400" fill-rule="nonzero" cx="63.4605465" cy="20.0568631" r="1.9755936"></circle>
                    <circle id="Oval" fill="#FDC400" fill-rule="nonzero" cx="2.01337817" cy="20.7491306" r="1.9755936"></circle>
                    <circle id="Oval" fill="#FDC400" fill-rule="nonzero" cx="32.8280501" cy="1.99043754" r="1.9755936"></circle>
                    <circle id="Oval" fill="#FDC400" fill-rule="nonzero" cx="2.01337817" cy="57.5283679" r="1.9755936"></circle>
                    <circle id="Oval" fill="#FDC400" fill-rule="nonzero" cx="63.4605465" cy="57.5283679" r="1.9755936"></circle>
                </g>
            </g>
        </g>
    </g>
</svg>