<?xml version="1.0" encoding="UTF-8"?>
<svg width="57px" height="46px" viewBox="0 0 57 46" version="1.1" xmlns="http://www.w3.org/2000/svg" xmlns:xlink="http://www.w3.org/1999/xlink">
    <!-- Generator: sketchtool 62 (101010) - https://sketch.com -->
    <title>55A7BEAF-3C28-4431-9323-E3BD88A5E00C</title>
    <desc>Created with sketchtool.</desc>
    <g id="Page-1" stroke="none" stroke-width="1" fill="none" fill-rule="evenodd">
        <g id="Blog-Details" transform="translate(-491.000000, -2880.000000)" fill="#FDC400" fill-rule="nonzero">
            <g id="Group-5" transform="translate(491.000000, 2880.000000)">
                <path d="M44.52,45.696 C51.576,45.696 56.784,40.656 56.784,34.608 C56.784,27.888 52.248,23.352 45.528,23.352 C43.848,23.352 42.504,24.024 42.168,24.192 C42.504,16.968 48.552,10.416 55.272,9.24 L55.272,0 C45.36,1.008 31.08,9.408 31.08,30.408 C31.08,39.648 36.792,45.696 44.52,45.696 Z M13.44,45.696 C20.496,45.696 25.704,40.656 25.704,34.608 C25.704,27.888 21,23.352 14.448,23.352 C12.768,23.352 11.256,24.024 10.92,24.192 C11.256,16.968 17.304,10.416 24.192,9.24 L24.192,0 C14.112,1.008 -1.70530257e-13,9.408 -1.70530257e-13,30.408 C-1.70530257e-13,39.648 5.544,45.696 13.44,45.696 Z" id="“"></path>
            </g>
        </g>
    </g>
</svg>