<svg id="Layer_1" data-name="Layer 1" xmlns="http://www.w3.org/2000/svg" xmlns:xlink="http://www.w3.org/1999/xlink" viewBox="0 0 166.67 146.02"><defs><mask id="mask" x="0" y="0" width="134.78" height="146.02" maskUnits="userSpaceOnUse"><g id="mask-2"><circle id="path-1" cx="67.39" cy="67.39" r="67.39" style="fill:#fff"/></g></mask><mask id="mask-2-2" x="0" y="0" width="134.78" height="134.78" maskUnits="userSpaceOnUse"><g id="mask-2-3" data-name="mask-2"><circle id="path-1-2" data-name="path-1" cx="67.39" cy="67.39" r="67.39" style="fill:#fff"/></g></mask><filter id="filter-4" x="-6.4%" y="-6.8%" width="112.8%" height="127.2%" name="filter-4"><feOffset result="shadowOffsetOuter1" dy="2" in="SourceAlpha"/><feGaussianBlur result="shadowBlurOuter1" stdDeviation="1" in="shadowOffsetOuter1"/><feColorMatrix values="0 0 0 0 0 0 0 0 0 0 0 0 0 0 0 0 0 0 0.14 0" in="shadowBlurOuter1"/></filter></defs><g id="Page-1"><g id="How-it-Works"><g id="Group-25"><g id="avatar-circle"><g id="background-circle"><circle id="path-1-9" data-name="path-1" cx="67.39" cy="67.39" r="67.39" style="fill:#f5f5f8"/></g><g style="mask:url(#mask)"><g id="body"><g id="body_dark-brown" data-name="body/dark-brown"><path id="Fill-1" d="M116.42,119.15a29.91,29.91,0,0,0-16.55-11.81L84.24,103V91.73A28,28,0,0,0,95.45,70.12a7.39,7.39,0,0,0,3,.64,7.49,7.49,0,1,0-3-14.35V54.29A28.08,28.08,0,0,0,67.39,26.21h0A28.08,28.08,0,0,0,39.31,54.29v2.12a7.49,7.49,0,1,0-3,14.35,7.38,7.38,0,0,0,3-.64A28.06,28.06,0,0,0,50.54,91.73V103l-15.62,4.38a29.9,29.9,0,0,0-16.56,11.81L7.49,134.87V146H127.3V134.87Z" style="fill:#ffcf83;fill-rule:evenodd"/><path id="Fill-4" d="M67.39,97.34a28.19,28.19,0,0,1-9.84-1.77,28.1,28.1,0,0,0,26.69,1.88V91.73A28,28,0,0,1,67.39,97.34Z" style="fill:#f7a74f;fill-rule:evenodd"/><path id="Stroke-6" d="M40.29,64.37a4.42,4.42,0,0,0,.15-1.1,4.14,4.14,0,0,0-5.73-3.79" style="fill:none;stroke:#00004d;stroke-linecap:round;stroke-linejoin:round;stroke-width:0.7487999796867371px"/><path id="Stroke-8" d="M94.5,64.37a4,4,0,0,1-.15-1.1,4.11,4.11,0,0,1,4.12-4.11,4,4,0,0,1,1.6.32" style="fill:none;stroke:#00004d;stroke-linecap:round;stroke-linejoin:round;stroke-width:0.7487999796867371px"/></g></g></g><g style="mask:url(#mask-2-2)"><g id="mouth"><g id="default"><path d="M74.88,80.13a7.49,7.49,0,0,1-15,0Z" style="fill:#fff;fill-rule:evenodd"/></g></g></g><g style="mask:url(#mask-2-2)"><g id="eyes"><path id="eye-right" d="M82.74,64.4a3,3,0,1,1-3-3,3,3,0,0,1,3,3" style="fill:#00004d;fill-rule:evenodd"/><path id="eye-left" d="M58,64.4a3,3,0,1,1-3-3,3,3,0,0,1,3,3" style="fill:#00004d;fill-rule:evenodd"/></g></g><g style="mask:url(#mask-2-2)"><g id="nose"><polyline points="67.39 61.4 71.14 74.13 65.89 74.88" style="fill:none;stroke:#00004d;stroke-linecap:round;stroke-linejoin:round;stroke-width:0.7487999796867371px"/></g></g><g style="mask:url(#mask-2-2)"><g id="head"><path id="short-13" d="M97.34,55.88V54.29a29.78,29.78,0,0,0-3.22-13.52,31.59,31.59,0,0,0,2.61-3.13L97.93,36A3.74,3.74,0,0,0,95.5,30.1l-24-3.94A29.21,29.21,0,0,0,37.57,55v.92A7.46,7.46,0,0,1,42.48,59l3.39-13.46,21,4a30,30,0,0,0,22-4.43L92.4,58.89a7.47,7.47,0,0,1,4.94-3" style="fill:#00004d;fill-rule:evenodd"/></g></g><g style="mask:url(#mask)"><g id="clothing"><g id="turtleneck"><path id="Fill-1-2" data-name="Fill-1" d="M127.3,134.87l-10.88-15.72a29.91,29.91,0,0,0-16.55-11.81l-13.76-3.86v-8a1.87,1.87,0,0,0-1.87-1.87v1.87a28.07,28.07,0,0,1-33.7,0V93.6a1.87,1.87,0,0,0-1.87,1.87v8l-13.75,3.86a29.9,29.9,0,0,0-16.56,11.81L7.49,134.87V146H127.3Z" style="fill:#ffca00;fill-rule:evenodd"/><path id="Stroke-4" d="M77.3,108.84a28.09,28.09,0,0,1-28.63-5.36" style="fill:none;stroke:#00004d;stroke-linecap:round;stroke-linejoin:round;stroke-width:0.7487999796867371px"/></g></g></g></g><g id="Group-9-Copy-2"><g id="Rectangle-Copy-14"><g style="filter:url(#filter-4)"><path id="path-3" d="M118.69,12H152a14.69,14.69,0,0,1,14.69,14.69h0A14.69,14.69,0,0,1,152,41.38H118.69A14.69,14.69,0,0,1,104,26.69h0A14.69,14.69,0,0,1,118.69,12Z" style="fill-rule:evenodd"/></g><path id="path-3-2" data-name="path-3" d="M118.69,12H152a14.69,14.69,0,0,1,14.69,14.69h0A14.69,14.69,0,0,1,152,41.38H118.69A14.69,14.69,0,0,1,104,26.69h0A14.69,14.69,0,0,1,118.69,12Z" style="fill:#fff;fill-rule:evenodd"/></g><circle id="Oval" cx="119.67" cy="26.69" r="3.92" style="fill:#00cb75"/><g id="Live" style="isolation:isolate"><g style="isolation:isolate"><path d="M131.53,27.94V18H133v8.67h4.52v1.3Z" style="fill:#25253b"/><path d="M140.13,19.31a.92.92,0,0,1-.65-.26.8.8,0,0,1-.27-.61.83.83,0,0,1,.27-.62.91.91,0,0,1,.65-.25.9.9,0,0,1,.65.25.84.84,0,0,1,0,1.23A.91.91,0,0,1,140.13,19.31Zm-.73,8.63V20.46h1.45v7.48Z" style="fill:#25253b"/><path d="M149.46,20.46l-2.72,7.48h-1.55l-2.72-7.48H144l1.9,5.75H146l1.89-5.75Z" style="fill:#25253b"/><path d="M154,28.09a3.6,3.6,0,0,1-1.9-.48,3.17,3.17,0,0,1-1.23-1.33,5,5,0,0,1,0-4.06,3.22,3.22,0,0,1,3-1.86,3.6,3.6,0,0,1,1.22.21,2.91,2.91,0,0,1,1.07.66,3,3,0,0,1,.74,1.16,4.68,4.68,0,0,1,.28,1.73v.52h-6V23.55h4.52a2.19,2.19,0,0,0-.23-1,1.88,1.88,0,0,0-.66-.71,1.86,1.86,0,0,0-1-.25,2,2,0,0,0-1.07.29,2,2,0,0,0-.7.78,2.19,2.19,0,0,0-.25,1v.85a2.78,2.78,0,0,0,.27,1.28,1.8,1.8,0,0,0,.74.8,2.23,2.23,0,0,0,1.11.28,2.29,2.29,0,0,0,.76-.12,1.62,1.62,0,0,0,.59-.36,1.71,1.71,0,0,0,.38-.59l1.38.25a2.44,2.44,0,0,1-.6,1.06,2.83,2.83,0,0,1-1.06.71A4.13,4.13,0,0,1,154,28.09Z" style="fill:#25253b"/></g></g></g></g></g></g></svg>