<?xml version="1.0" encoding="UTF-8"?>
<svg width="310px" height="77px" viewBox="0 0 310 77" version="1.1" xmlns="http://www.w3.org/2000/svg" xmlns:xlink="http://www.w3.org/1999/xlink">
    <!-- Generator: Sketch 63.1 (92452) - https://sketch.com -->
    <title>Group 5</title>
    <desc>Created with Sketch.</desc>
    <defs>
        <path d="M17.0634231,47.8412297 C22.7512308,47.8412297 27.0170866,45.4416858 28.7056545,43.3087579 L28.7056545,46.7747658 L40.08127,46.7747658 L40.08127,17.9802392 C40.08127,6.87123979 32.6160223,0.205840133 20.440559,0.205840133 C14.4861353,0.205840133 8.70945556,1.80553605 5.15457574,3.76071995 L5.15457574,14.0698714 C8.79832755,11.9369435 13.1530553,10.3372476 17.9521431,10.3372476 C24.7952867,10.3372476 28.7056545,13.8921274 28.7056545,18.5134712 L28.7056545,21.890607 C26.8393426,19.9354231 22.5734869,17.8913672 17.4189111,17.8913672 C7.9096076,17.8913672 0,23.8457909 0,32.6441185 C0,41.975678 7.9096076,47.8412297 17.0634231,47.8412297 Z M19.729583,39.1317742 C15.1082392,39.1317742 10.7535115,36.8211023 10.7535115,32.6441185 C10.7535115,28.4671347 15.1082392,26.0675908 19.729583,26.0675908 C24.2620548,26.0675908 28.8833985,28.4671347 28.8833985,32.6441185 C28.8833985,36.8211023 24.2620548,39.1317742 19.729583,39.1317742 Z" id="path-1"></path>
    </defs>
    <g id="Page-1" stroke="none" stroke-width="1" fill="none" fill-rule="evenodd">
        <g id="BG-003" transform="translate(-266.000000, -259.000000)">
            <g id="Group-5" transform="translate(266.000000, 258.965998)">
                <g id="Group-4" transform="translate(95.000000, 14.000000)">
                    <g id="Group-3" transform="translate(0.921995, 0.034002)">
                        <g id="Group-2-Copy" transform="translate(173.078005, 0.000000)">
                            <g id="Path-2" transform="translate(0.184043, 0.915235)">
                                <mask id="mask-2" fill="white">
                                    <use xlink:href="#path-1"></use>
                                </mask>
                                <use id="Mask" fill="#320954" fill-rule="nonzero" opacity="0.5" xlink:href="#path-1"></use>
                            </g>
                        </g>
                        <g id="Group-2" transform="translate(0.000000, 1.100000)" fill="#320954" fill-rule="nonzero">
                            <path d="M25.898958,47.7564644 C31.5867657,47.7564644 37.8078054,46.3345124 42.3402772,43.2239926 C42.3402772,39.568582 42.3402772,36.827024 42.3402772,34.9993187 C42.3402772,34.5361014 42.3402772,33.8412756 42.3402772,32.9148411 C38.4299094,36.114233 32.6532297,37.9805449 27.3209099,37.9805449 C18.9669424,37.9805449 12.9236467,33.9813051 11.6794387,26.9604174 C26.2656079,26.9604174 37.2052348,26.9604174 44.4983194,26.9604174 C44.8750599,26.9604174 45.0197595,26.8504557 45.3161603,26.6622105 C45.4872874,26.4810961 45.681053,26.2673708 45.694156,25.9340005 C45.717413,25.3422909 45.717413,24.7738382 45.717413,24.2053856 C45.717413,10.6968422 38.4299094,0.121074777 24.0326461,0.121074777 C11.5905667,0.121074777 0.659311293,10.3413543 0.659311293,24.0276416 C0.659311293,37.7139289 11.5905667,47.7564644 25.898958,47.7564644 Z M34.6972856,19.1396818 L12.0349267,19.1396818 C13.6346226,13.2741301 18.1670944,9.5415063 23.8549021,9.5415063 C30.5203018,9.5415063 34.1640536,14.3405941 34.6972856,19.1396818 Z M65.075337,47.7564644 C70.7631447,47.7564644 75.0290005,45.3569205 76.7175684,43.2239926 L76.7175684,46.6900004 L88.0931839,46.6900004 L88.0931839,17.8954739 C88.0931839,6.78647444 80.6279362,0.121074777 68.4524728,0.121074777 C62.4980491,0.121074777 56.7213694,1.7207707 53.1664896,3.6759546 L53.1664896,13.9851061 C56.8102414,11.8521782 61.1649692,10.2524823 65.964057,10.2524823 C72.8072006,10.2524823 76.7175684,13.8073621 76.7175684,18.4287058 L76.7175684,21.8058417 C74.8512565,19.8506578 70.5854007,17.8066019 65.430825,17.8066019 C55.9215215,17.8066019 48.0119139,23.7610256 48.0119139,32.5593531 C48.0119139,41.8909127 55.9215215,47.7564644 65.075337,47.7564644 Z M67.7414969,39.0470088 C63.1201531,39.0470088 58.7654253,36.7363369 58.7654253,32.5593531 C58.7654253,28.3823693 63.1201531,25.9828255 67.7414969,25.9828255 C72.2739687,25.9828255 76.8953124,28.3823693 76.8953124,32.5593531 C76.8953124,36.7363369 72.2739687,39.0470088 67.7414969,39.0470088 Z M109.139676,47.7564644 C118.293491,47.7564644 126.647459,42.3352726 126.647459,33.4480731 C126.647459,27.4936494 123.714683,24.1165136 118.293491,21.7169697 L110.295012,18.2509619 C107.184492,16.8290099 105.495924,15.94029 105.495924,13.6296181 C105.495924,10.9634582 107.806596,9.4526343 111.183732,9.4526343 C115.627331,9.4526343 120.159803,11.6744342 123.981299,14.60721 L123.981299,4.03144258 C120.693035,1.7207707 116.249435,0.121074777 111.09486,0.121074777 C101.496684,0.121074777 94.5646685,6.34211446 94.5646685,14.2517221 C94.5646685,20.9171217 98.4750363,23.9387696 103.274124,26.0716975 L111.628092,29.7154493 C114.383124,31.0485292 115.538459,31.9372492 115.538459,34.1590491 C115.538459,37.0918249 112.783428,38.6026488 109.050804,38.6026488 C103.896228,38.6026488 98.2084203,36.3808489 94.0314365,32.5593531 L94.0314365,43.4906086 C97.8529323,46.0678964 103.185252,47.7564644 109.139676,47.7564644 Z M144.494559,61.1800005 L176.132989,1.18753872 L163.69091,1.18753872 L150.626727,28.0268814 L137.562543,1.18753872 L124.94272,1.18753872 L144.494559,40.0246008 L132.540256,61.1800005 L144.494559,61.1800005 Z" id="easya"></path>
                        </g>
                    </g>
                </g>
                <g id="Group">
                    <path d="M82.9244618,0.210137102 C79.6748248,-0.140543148 80.7327102,5.11381593 69.3706701,9.56161043 C58.0086301,14.0094049 27.0669427,14.0853856 15.5763198,9.59083378 C4.09154167,5.09628191 5.16111643,-0.216523869 1.87641143,0.134156381 C-1.40829358,0.484836631 -0.84720518,12.1157316 7.5924995,13.8457541 C7.5924995,13.8457541 3.64150202,16.5635261 4.84550421,21.3620008 C6.0495064,26.1604756 15.7633493,30.1582304 25.8804745,30.450464 C30.9185808,30.5965807 35.1033651,31.0524651 38.4874295,31.8414956 C38.691993,33.717635 38.9725372,34.9216371 38.9725372,34.9216371 C39.8784611,34.1910533 40.9772593,33.5481395 42.2689315,32.9870511 C43.8879053,33.6182756 45.2321796,34.3605488 46.3075991,35.22556 C46.3075991,35.22556 46.6524346,33.7585477 46.8569981,31.5317281 C50.1767711,30.7719209 54.2621961,30.3277259 59.1775642,30.1874538 C69.1836407,29.9010649 78.7922795,25.9442228 79.9845924,21.19835 C81.1769052,16.4524773 77.2668204,13.7639288 77.2668204,13.7639288 C85.6188551,12.0631295 86.1740988,0.560817351 82.9244618,0.210137102 Z" id="Path" fill="#F37021" fill-rule="nonzero"></path>
                    <g transform="translate(4.413270, 15.612611)">
                        <path d="M37.9784,59.1287683 L37.9784,59.1287683 C18.8312584,59.1287683 3.30196797,43.6053226 3.30196797,24.4581809 L3.30196797,2.05555765 L38.2238762,6.35139071 L72.648989,2.05555765 L72.648989,24.4581809 C72.654832,43.6053226 57.1313863,59.1287683 37.9784,59.1287683 Z" id="Path" fill="#F37121" fill-rule="nonzero"></path>
                        <g fill-rule="nonzero">
                            <path d="M57.616494,0.00992285844 C48.6157009,0.00992285844 41.1228329,6.53842017 39.5973738,15.1008629 C39.1005768,15.0307269 38.5628671,14.9898142 37.9784,14.9898142 C37.3939329,14.9898142 36.8562232,15.0307269 36.3594262,15.1008629 C34.8339671,6.5325755 27.3352544,0.00992285844 18.340306,0.00992285844 C8.24655949,0.00992285844 0.0289523061,8.22168537 0.0289523061,18.3154319 C0.0289523061,28.4091784 8.24071482,36.6267856 18.340306,36.6267856 C28.3405378,36.6267856 36.4821643,28.5728292 36.6399704,18.6076654 C37.3997776,18.4673933 38.5511777,18.4673933 39.3168296,18.6076654 C39.4746357,28.5669845 47.6221069,36.6267856 57.616494,36.6267856 C67.7102405,36.6267856 75.9278477,28.4150231 75.9278477,18.3154319 C75.9278477,8.2158407 67.7160852,0.00992285844 57.616494,0.00992285844 Z M18.340306,32.535516 C10.5026024,32.535516 4.12022189,26.1589801 4.12022189,18.3154319 C4.12022189,10.4777283 10.4967578,4.10119244 18.340306,4.10119244 C26.1780096,4.10119244 32.5545495,10.4777283 32.5545495,18.3154319 C32.5603901,26.1589801 26.1838543,32.535516 18.340306,32.535516 Z M57.616494,32.535516 C49.7787904,32.535516 43.4022545,26.1589801 43.4022545,18.3154319 C43.4022545,10.4777283 49.7787904,4.10119244 57.616494,4.10119244 C65.4541976,4.10119244 71.8365781,10.4777283 71.8365781,18.3154319 C71.8365781,26.1589801 65.4600422,32.535516 57.616494,32.535516 Z" id="Shape" fill="#320954"></path>
                            <circle id="Oval" fill="#FFFFFF" cx="56.6988807" cy="18.6251994" r="9.20535655"></circle>
                            <circle id="Oval" fill="#000000" cx="56.6988807" cy="18.6251994" r="6.70968211"></circle>
                            <circle id="Oval" fill="#FFFFFF" cx="19.263764" cy="18.6251994" r="9.20535655"></circle>
                            <circle id="Oval" fill="#000000" cx="19.263764" cy="18.6251994" r="6.70968211"></circle>
                            <circle id="Oval" fill="#FFFFFF" cx="60.7317035" cy="13.9611521" r="2.67685924"></circle>
                            <circle id="Oval" fill="#FFFFFF" cx="23.2965869" cy="13.9611521" r="2.67685924"></circle>
                        </g>
                        <path d="M30.0179583,33.406372 C29.6672781,33.1550511 29.6848121,32.6290307 30.041337,32.3893992 C31.3446986,31.541922 34.2553447,29.9755502 38.013468,29.9755502 C41.8241934,29.9755502 44.7056161,31.5477666 45.9446863,32.4244673 C46.2836772,32.6640988 46.3888813,33.1901191 45.9622203,33.5174207 C42.5898453,36.0949206 40.5091425,39.5724997 39.3694316,41.9629701 C38.9252367,42.8981174 37.6043411,42.9039621 37.1543014,41.9746594 C35.9853672,39.566655 33.7760817,36.0598525 30.0179583,33.406372 Z" id="Path" fill="#FDC400"></path>
                        <path d="M58.7386708,52.3664841 C54.0337108,48.2985932 46.5700661,45.6684914 38.1654295,45.6684914 C29.7607928,45.6684914 22.3029928,48.2985932 17.5921881,52.3664841 C23.3491889,56.6155598 30.4621533,59.1287683 38.1654295,59.1287683 L38.1654295,59.1287683 C45.8687056,59.1287683 52.98167,56.6155598 58.7386708,52.3664841 Z" id="Path" fill="#F99F55" fill-rule="nonzero"></path>
                    </g>
                </g>
            </g>
        </g>
    </g>
</svg>