<?xml version="1.0" encoding="UTF-8" standalone="no"?>
<!DOCTYPE svg PUBLIC "-//W3C//DTD SVG 1.1//EN" "http://www.w3.org/Graphics/SVG/1.1/DTD/svg11.dtd">
<svg version="1.1" xmlns="http://www.w3.org/2000/svg" xmlns:xlink="http://www.w3.org/1999/xlink" preserveAspectRatio="xMidYMid meet" viewBox="0 0 640 640" width="640" height="640"><defs><path d="M320 0C143.27 0 0 143.27 0 320C0 496.73 143.27 640 320 640C496.73 640 640 496.73 640 320C640 143.27 496.73 0 320 0Z" id="a3I7cLiW85"></path><path d="M277.99 328.08C277.99 351.37 296.82 370.32 319.96 370.32C343.1 370.32 361.92 351.37 361.92 328.08C361.92 304.79 343.1 286.39 319.96 286.39C296.82 286.39 277.99 304.79 277.99 328.08ZM420.38 253.94C407.32 252.52 394.25 251.46 381.19 250.6C379.22 244.36 377.15 236.55 374.94 230.24C373.25 225.49 368.02 221.23 363.42 220.89C334.84 218.83 306.25 218.83 277.68 220.89C273.07 221.23 267.84 225.49 266.16 230.24C263.95 236.55 261.88 244.36 259.9 250.6C246.85 251.46 233.86 252.52 220.81 253.94C216.19 254.45 211.57 258.68 210.65 263.29C199.64 319.87 200.03 351.25 210.65 405.89C211.55 410.5 216.19 414.73 220.81 415.23C287.35 422.46 353.83 422.46 420.38 415.23C424.99 414.73 429.61 410.5 430.53 405.89C439.77 358.35 439.77 310.82 430.53 263.29C429.63 258.68 424.99 254.46 420.38 253.94ZM251.98 328.42C251.98 291.12 282.96 260.37 320.27 260.37C357.59 260.37 387.94 290.72 387.94 328.02C387.94 365.32 357.59 396.33 320.27 396.33C282.96 396.33 251.98 365.71 251.98 328.42Z" id="a2sloXuA9"></path></defs><g><g><g><g><use xlink:href="#a3I7cLiW85" opacity="1" fill="#f37121" fill-opacity="1"></use><g><use xlink:href="#a3I7cLiW85" opacity="1" fill-opacity="0" stroke="#000000" stroke-width="1" stroke-opacity="0"></use></g></g><g><use xlink:href="#a2sloXuA9" opacity="1" fill="#ffffff" fill-opacity="1"></use><g><use xlink:href="#a2sloXuA9" opacity="1" fill-opacity="0" stroke="#000000" stroke-width="1" stroke-opacity="0"></use></g></g></g></g></g></svg>