<?xml version="1.0" encoding="UTF-8"?>
<svg width="95px" height="95px" viewBox="0 0 95 95" version="1.1" xmlns="http://www.w3.org/2000/svg" xmlns:xlink="http://www.w3.org/1999/xlink">
    <!-- Generator: Sketch 63.1 (92452) - https://sketch.com -->
    <title>algebra</title>
    <desc>Created with Sketch.</desc>
    <g id="Design-System" stroke="none" stroke-width="1" fill="none" fill-rule="evenodd">
        <g id="Tangelo" transform="translate(-1519.000000, -5852.000000)" fill-rule="nonzero">
            <g id="algebra" transform="translate(1519.000000, 5852.000000)">
                <circle id="Oval" fill="#FDC400" cx="47.1413363" cy="47.1889526" r="47.1413363"></circle>
                <g id="Group" transform="translate(12.697674, 15.261628)">
                    <path d="M48.2951153,56.2519175 L20.030581,56.2519175 C16.4068601,56.2519175 13.4680811,53.3143594 13.4680811,49.6894176 L13.4680811,16.3580229 C13.4680811,12.7343021 16.4056392,9.79552306 20.030581,9.79552306 L48.2951153,9.79552306 C51.9188362,9.79552306 54.8576152,12.7330811 54.8576152,16.3580229 L54.8576152,49.6894176 C54.8576152,53.3143594 51.9188362,56.2519175 48.2951153,56.2519175 Z" id="Path" fill="#F37121"></path>
                    <g>
                        <path d="M42.6006968,44.5847084 C42.3772666,44.5847084 42.1660457,44.4662782 42.0500573,44.2745921 C42.0463945,44.2684875 42.0427317,44.2623828 42.0402899,44.2574991 L39.9231969,40.3810457 L37.7548248,44.2636038 C37.752383,44.2684875 37.7487202,44.2745921 37.7450574,44.2794759 C37.6266272,44.4711619 37.4227318,44.5847084 37.1968597,44.5847084 L35.2763365,44.5847084 C35.0358133,44.5847084 34.8172668,44.451627 34.7049412,44.2391852 C34.5950575,44.0279642 34.6097086,43.7752317 34.74279,43.5786619 L38.1992434,38.3945923 L34.8844179,32.9834296 C34.7586621,32.7819761 34.7513365,32.5329063 34.8636621,32.329011 C34.9772086,32.1226738 35.1933133,31.9944761 35.4289528,31.9944761 L37.3861039,31.9944761 C37.6180806,31.9944761 37.8329644,32.1202319 37.9465109,32.3216854 L40.0098829,36.2188946 L42.2331968,32.3070342 C42.3479643,32.1153482 42.5591852,31.9944761 42.7850573,31.9944761 L44.6225573,31.9944761 C44.8606386,31.9944761 45.0779642,32.1251156 45.1902898,32.3338947 C45.3013944,32.5414528 45.2904061,32.7917435 45.1634293,32.9883133 L41.7460457,38.3579644 L45.0901735,43.5847666 C45.2208131,43.7862201 45.2318014,44.0365108 45.1206968,44.2440689 C45.0083712,44.4540689 44.7910456,44.5847084 44.5529642,44.5847084 L42.6006968,44.5847084 L42.6006968,44.5847084 Z" id="Path" fill="#672A96"></path>
                        <path d="M8.7662789,35.0370342 C8.65639518,35.127383 8.50499983,35.1542435 8.37191844,35.1066272 C8.36703472,35.1054063 8.36337193,35.1041853 8.35970914,35.1017435 L5.76156965,34.0578482 L6.2645929,36.8330225 C6.26581383,36.8366853 6.26581383,36.8403481 6.26703476,36.8452318 C6.28656964,36.9868597 6.23162778,37.1248248 6.12174406,37.2151737 L5.1816278,37.9892434 C5.0644185,38.0856969 4.90325572,38.1101155 4.76284874,38.0502899 C4.6236627,37.9916853 4.52965107,37.8622667 4.51499991,37.7120923 L4.11697666,33.7819179 L0.313779064,32.469418 C0.170930229,32.4218017 0.0671511615,32.3021505 0.0402906969,32.1580808 C0.0122093021,32.0115691 0.0671511615,31.8613947 0.181918601,31.7661622 L1.14034881,30.9774412 C1.25389532,30.8834296 1.40895346,30.859011 1.54691857,30.911511 L4.12796503,31.9883715 L3.63959295,29.1777901 C3.61761621,29.0373831 3.673779,28.8933134 3.78366272,28.8017436 L4.68348828,28.060639 C4.79947665,27.9641855 4.95941851,27.9409878 5.09860455,27.9983715 C5.23656966,28.0545343 5.33180222,28.1815111 5.34889524,28.3304646 L5.84093012,32.3363366 L9.58430214,33.5474993 C9.72959283,33.5926738 9.83581376,33.711104 9.86511608,33.8576156 C9.89441841,34.0053482 9.84069748,34.1567435 9.72470911,34.253197 L8.7662789,35.0370342 Z" id="Path" fill="#FFFFFF"></path>
                        <path d="M67.5003475,44.8081386 C67.4185452,44.8752898 67.3062196,44.8948247 67.2073242,44.8606386 C67.2036615,44.8594177 67.2012196,44.8581968 67.1987777,44.8569759 L65.2684871,44.0816852 L65.6420917,46.1426154 C65.6420917,46.1450572 65.6433126,46.14872 65.6433126,46.1511619 C65.6579638,46.2561619 65.6176731,46.35872 65.5358708,46.4258712 L64.8374987,47.0009293 C64.7495917,47.0729642 64.6311615,47.0900572 64.5261615,47.0461037 C64.4236034,47.0021502 64.3527894,46.9056967 64.341801,46.7945921 L64.0463359,43.875348 L61.2211034,42.8998247 C61.1148825,42.8644178 61.0379639,42.7752898 61.0172081,42.667848 C60.9964523,42.5591852 61.036743,42.4468596 61.1222081,42.3772666 L61.8340104,41.7912201 C61.9182546,41.7216271 62.034243,41.7033131 62.1355802,41.7423829 L64.0524406,42.5420922 L63.6898243,40.4543015 C63.6739522,40.3505225 63.7154639,40.2430806 63.7972662,40.1759294 L64.465115,39.6252899 C64.551801,39.554476 64.6702313,39.536162 64.7727894,39.5788946 C64.8753475,39.6204062 64.9461615,39.7156387 64.9583708,39.8255225 L65.3234289,42.8009294 L68.103487,43.7007549 C68.2109289,43.734941 68.2902893,43.822848 68.3122661,43.9315108 C68.3342428,44.0413945 68.2939521,44.1537201 68.2072661,44.2257549 L67.5003475,44.8081386 Z" id="Path" fill="#FFFFFF"></path>
                        <path d="M60.23215,16.9379648 C60.2297081,16.9404066 60.2272662,16.9428485 60.2248244,16.9452904 C60.1332546,17.0283136 60.0087197,17.0576159 59.8902895,17.0234299 L58.8781384,16.7328485 C58.7511616,16.6962206 58.6559291,16.5936625 58.6302895,16.4642439 C58.60465,16.3360462 58.6498244,16.2054067 58.7499407,16.1223834 L61.3554058,13.9149416 L60.4299407,10.5622672 C60.3945337,10.4377324 60.4287197,10.304651 60.5178476,10.2143021 C60.6081965,10.1227324 60.7424988,10.0873254 60.8658127,10.1239533 L61.8962778,10.4206393 C62.0183709,10.4560463 62.1123825,10.5537207 62.1416848,10.6782556 L62.6373825,13.0444183 L64.4016266,11.3204649 C64.4907545,11.2362207 64.6213941,11.2056975 64.7398243,11.2398835 L65.708022,11.5182556 C65.8337778,11.5548835 65.9277894,11.6562207 65.9558708,11.7831974 C65.9827312,11.9089533 65.9399987,12.0395928 65.8423243,12.123837 L60.23215,16.9379648 Z" id="Path" fill="#FFFFFF"></path>
                        <path d="M31.4865691,68.7090684 C31.4865691,68.7127312 31.4865691,68.7176149 31.4865691,68.7212777 C31.4902319,68.8702312 31.4181971,69.0069754 31.2924412,69.0887777 L30.2277901,69.7810451 C30.0947087,69.8677312 29.9249994,69.8726149 29.7870343,69.7956963 C29.6502901,69.7187777 29.5672669,69.573487 29.5697087,69.415987 L29.617325,65.2965685 L25.8299995,63.4908127 C25.6883716,63.4248825 25.59436,63.2893592 25.5821507,63.135522 C25.5699414,62.9804639 25.6444181,62.8315104 25.7750576,62.7460453 L26.8604646,62.0403476 C26.9886623,61.9573244 27.1534878,61.9487778 27.2890111,62.0195918 L29.8370924,63.4370918 L29.6600576,60.4665686 C29.6539529,60.318836 29.7284296,60.1759872 29.8541855,60.0941849 L30.8724412,59.4324407 C31.0043017,59.3469756 31.1715691,59.3408709 31.3095343,59.4165686 C31.4462784,59.4910453 31.5305226,59.6338942 31.5305226,59.7889523 L31.4865691,68.7090684 Z" id="Path" fill="#FFFFFF"></path>
                        <path d="M27.2243018,46.5723828 C26.5674413,46.5723828 25.9801739,46.1548247 25.7652902,45.5297084 L22.7434879,36.7036039 C22.7166275,36.6266853 22.6299414,36.5888365 22.5554647,36.6218016 C22.3466856,36.5412202 20.8754647,37.4642434 19.9182554,37.6559295 C19.9182554,37.6559295 19.9182554,37.6559295 19.9182554,37.6559295 C19.6044764,37.6840109 19.3199996,37.6144179 19.0843601,37.4788946 C18.1479066,36.9416853 18.2394764,35.5534877 19.2149996,35.091976 C20.3431391,34.5596505 22.9070926,33.3374993 22.9730228,33.203197 C23.5456391,32.9455807 24.2354646,33.0542435 24.7091856,33.5291854 C24.8837786,33.7037784 25.0022088,33.9272086 25.0827902,34.1604063 L26.8629064,40.1173248 C26.9080809,40.2479643 27.0948832,40.2406387 27.1290692,40.1063364 L30.9371505,26.0766274 C31.1117436,25.3941274 31.7270924,24.9179646 32.4303482,24.9179646 C32.5793017,25.0376158 46.865406,24.8532553 47.8922084,24.9179646 C48.7322083,24.9704646 49.3524409,27.2450576 47.7554642,27.6992436 L33.7343017,27.6992436 C33.6708133,27.6992436 33.6158714,27.7419762 33.5999993,27.8030227 L28.7187204,45.4100572 C28.5490111,46.0705805 27.9666274,46.5406386 27.2853483,46.5674991 C27.2658134,46.5723828 27.2450576,46.5723828 27.2243018,46.5723828 Z" id="Path" fill="#672A96"></path>
                        <circle id="Oval" fill="#F37121" cx="7.17174404" cy="19.7277903" r="1.00848835"></circle>
                        <circle id="Oval" fill="#F37121" cx="60.7400569" cy="27.7493018" r="1.00848835"></circle>
                        <circle id="Oval" fill="#F37121" cx="8.1802324" cy="50.2547083" r="1"></circle>
                        <circle id="Oval" fill="#F37121" cx="30.9969761" cy="0.923023237" r="1"></circle>
                        <circle id="Oval" fill="#F37121" cx="47.8384874" cy="61.385929" r="1"></circle>
                    </g>
                    <path d="M20.8156391,15.7341276 C20.1416856,15.7341276 19.5947089,15.1871509 19.5947089,14.5131974 L19.5947089,6.95075568 C19.5947089,6.2768022 20.1416856,5.72982547 20.8156391,5.72982547 C21.4895926,5.72982547 22.0365693,6.2768022 22.0365693,6.95075568 L22.0365693,14.5131974 C22.0365693,15.1871509 21.4908135,15.7341276 20.8156391,15.7341276 Z" id="Path" fill="#FFFFFF"></path>
                    <path d="M29.7760459,15.7341276 C29.1020924,15.7341276 28.5551157,15.1871509 28.5551157,14.5131974 L28.5551157,6.95075568 C28.5551157,6.2768022 29.1020924,5.72982547 29.7760459,5.72982547 C30.4499994,5.72982547 30.9969761,6.2768022 30.9969761,6.95075568 L30.9969761,14.5131974 C30.9969761,15.1871509 30.4512203,15.7341276 29.7760459,15.7341276 Z" id="Path" fill="#FFFFFF"></path>
                    <path d="M38.5093597,15.7341276 C37.8354062,15.7341276 37.2884295,15.1871509 37.2884295,14.5131974 L37.2884295,6.95075568 C37.2884295,6.2768022 37.8354062,5.72982547 38.5093597,5.72982547 C39.1833132,5.72982547 39.7302899,6.2768022 39.7302899,6.95075568 L39.7302899,14.5131974 C39.7302899,15.1871509 39.1833132,15.7341276 38.5093597,15.7341276 Z" id="Path" fill="#FFFFFF"></path>
                    <path d="M47.0314526,15.7341276 C46.3574991,15.7341276 45.8105223,15.1871509 45.8105223,14.5131974 L45.8105223,6.95075568 C45.8105223,6.2768022 46.3574991,5.72982547 47.0314526,5.72982547 C47.705406,5.72982547 48.2523828,6.2768022 48.2523828,6.95075568 L48.2523828,14.5131974 C48.2523828,15.1871509 47.705406,15.7341276 47.0314526,15.7341276 Z" id="Path" fill="#FFFFFF"></path>
                </g>
            </g>
        </g>
    </g>
</svg>