<?xml version="1.0" encoding="UTF-8"?>
<svg width="105px" height="105px" viewBox="0 0 105 105" version="1.1" xmlns="http://www.w3.org/2000/svg" xmlns:xlink="http://www.w3.org/1999/xlink">
    <!-- Generator: sketchtool 62 (101010) - https://sketch.com -->
    <title>77D1FE2A-4227-4267-A72A-A23D642CEAAA</title>
    <desc>Created with sketchtool.</desc>
    <defs>
        <circle id="path-1" cx="52.29" cy="52.29" r="52.29"></circle>
    </defs>
    <g id="Page-1" stroke="none" stroke-width="1" fill="none" fill-rule="evenodd">
        <g id="Teaching-Methods" transform="translate(-555.000000, -520.000000)">
            <g id="Group-2-Copy" transform="translate(555.000000, 520.000000)">
                <mask id="mask-2" fill="white">
                    <use xlink:href="#path-1"></use>
                </mask>
                <use id="Oval" fill="#F37121" xlink:href="#path-1"></use>
                <g id="Group-131" mask="url(#mask-2)">
                    <g transform="translate(17.220000, 16.800000)">
                        <path d="M51.3743807,7.1889388 C51.3743807,7.1889388 24.1473931,-7.26769662 12.2355545,11.6842157 C9.65850167,15.7842557 5.1503224,26.1589951 1.66163435,40.0497393 C-3.07999772,58.9299828 19.210713,61.8362484 26.9966059,62.614122 L40.5975501,64.4433396 C40.5975501,64.4433396 70.0276226,64.4433396 69.2841218,44.1825393 C69.0664946,38.2499553 65.8161985,32.6656352 60.2941728,19.612035 C60.2941728,19.612035 54.3413279,10.0557916 51.3743807,7.1889388" id="Fill-1" stroke="none" fill="#321454" fill-rule="evenodd"></path>
                        <path d="M1.11557719,84.876861 L1.92541788,76.2038673 L1.92541788,76.2038673 C3.7039331,67.5761936 11.569458,61.5806095 20.3602262,62.1504319 C35.7658936,63.1492591 57.7969435,65.086736 62.0467724,68.1729296 C70.5139725,74.3217297 73.7395725,94.78413 73.7395725,94.78413 C52.6806328,94.4139896 36.9305016,94.1787896 26.4891787,94.07853 C23.5870031,94.0506628 17.9216762,94.0437535 9.49319816,94.0578022 C4.85401197,94.0655362 1.08693993,90.3110013 1.07920726,85.6718151 C1.07876487,85.4064046 1.09090179,85.1411223 1.11557719,84.876861 Z" id="Fill-3" stroke="none" fill="#FFFFFF" fill-rule="evenodd"></path>
                        <path d="M57.5471913,13.0353389 C61.0993834,23.1468894 60.1973242,53.1033395 47.7532616,55.9761395 C42.8341207,57.1118531 34.0795398,54.8169395 27.6585797,44.2833393 C27.6585797,44.2833393 8.11164501,10.3137388 34.2499926,6.68493879 C34.2499926,6.68493879 53.8876473,2.61876753 57.5471913,13.0353389" id="Fill-7" stroke="none" fill="#FCC400" fill-rule="evenodd"></path>
                        <path d="M22.5547228,27.594246 C33.3412302,57.6387952 23.6116108,62.5784993 23.6116108,62.5784993 L44.3260111,64.4432993 C44.3260111,64.4432993 43.9944799,49.3897263 45.10328,49.6921263 C45.10328,49.6921263 18.6950908,16.8435226 22.5547228,27.594246" id="Fill-9" stroke="none" fill="#FCC400" fill-rule="evenodd"></path>
                        <path d="M21.6632779,26.6315253 C21.6632779,26.6315253 16.6961562,22.0279893 15.354105,28.1280021 C14.0121545,34.228015 19.7543274,40.6707479 24.7563259,35.5466807 L21.6632779,26.6315253 Z" id="Fill-11" stroke="none" fill="#FCC400" fill-rule="evenodd"></path>
                        <path d="M26.4891787,40.0497393 C26.4891787,42.3323553 24.6388939,44.1825393 22.3563787,44.1825393 C20.0738634,44.1825393 18.2235786,42.3323553 18.2235786,40.0497393 C18.2235786,37.7672241 20.0738634,35.9169392 22.3563787,35.9169392 C24.6388939,35.9169392 26.4891787,37.7672241 26.4891787,40.0497393" id="Fill-13" stroke="none" fill="#FF8219" fill-rule="evenodd"></path>
                        <path d="M17.3196243,28.7728298 C16.9892019,30.0422043 17.3607507,31.4439291 18.277426,32.3821755 C18.5036212,32.6137131 18.8820244,32.5465803 19.0468324,32.2829883 C19.0972324,32.2024491 19.1487412,32.1228171 19.2033748,32.0453019 C19.2242404,32.0157675 19.3209076,31.9005531 19.2268612,32.0095179 C19.2599236,31.9711131 19.2902644,31.9305915 19.3239316,31.8926907 C19.3866292,31.8219291 19.4546692,31.7586267 19.5254308,31.6961307 C19.5751252,31.6521819 19.4224132,31.7646747 19.506178,31.7117547 C19.5222052,31.7017755 19.5373252,31.6903851 19.5533524,31.6804059 C19.5690772,31.6704267 19.585306,31.6607499 19.6016356,31.6516779 C19.61605,31.6435131 19.7260228,31.5890811 19.6428628,31.6281915 C19.564642,31.6648827 19.6900372,31.6159947 19.7150356,31.6101483 C19.729954,31.6067211 19.7544484,31.6056123 19.7693668,31.5995643 C19.675018,31.6373643 19.6789492,31.6097451 19.7368084,31.6080315 C19.7610004,31.6073259 19.7847892,31.6092411 19.8087796,31.6092411 C19.8592804,31.6092411 19.840834,31.6393803 19.7597908,31.6014795 C19.7780356,31.6099467 19.8049492,31.6106523 19.8249076,31.6160955 C19.84537,31.6217403 19.9322596,31.6593387 19.8535348,31.6214379 C19.7705764,31.5815211 19.8919396,31.6437147 19.9116964,31.6560123 C19.9212724,31.6618587 19.9432468,31.6813131 19.9555444,31.6851435 C19.8773236,31.6611531 19.8839764,31.6225467 19.9294372,31.6658907 C19.9586692,31.6939131 19.9887076,31.7207259 20.0160244,31.7507643 C20.0275156,31.7633643 20.0766052,31.8341259 20.0306404,31.7641707 C19.9831636,31.6916955 20.0398132,31.7781819 20.0496916,31.7928987 C20.0991844,31.8663819 20.1274084,31.9585131 20.1783124,32.0288715 C20.173474,32.0219163 20.134666,31.9152699 20.1612772,31.9913739 C20.1677284,32.0093163 20.174482,32.0271579 20.1806308,32.0453019 C20.1974644,32.0946939 20.2118788,32.1449931 20.2241764,32.1957963 C20.2340548,32.2367211 20.2412116,32.2781499 20.2493764,32.3195787 C20.2688308,32.4184635 20.2396996,32.2117227 20.2442356,32.2781499 C20.2456468,32.2996203 20.2489732,32.3209899 20.2507876,32.3423595 C20.2590532,32.4352971 20.2620772,32.5286379 20.2614724,32.6218779 C20.2607668,32.7118923 20.2564324,32.8021083 20.2486708,32.8917195 C20.2468564,32.9120811 20.2449412,32.9324427 20.2427236,32.9526027 C20.2413124,32.9658075 20.2277044,33.0673131 20.240506,32.9787099 C20.2533076,32.8898043 20.2380868,32.9911083 20.23597,33.0041115 C20.2310308,33.0339483 20.2256884,33.0636843 20.219842,33.0934203 C20.2029076,33.1798059 20.1821428,33.2654859 20.155834,33.3494523 C20.1433348,33.3892683 20.1285172,33.4280763 20.114506,33.4671867 C20.0922292,33.5290779 20.17045,33.3517707 20.1273076,33.4357371 C20.1156148,33.4583163 20.1051316,33.4815003 20.092834,33.5038779 C20.0849716,33.5181915 20.0769076,33.5324043 20.0683396,33.5463147 C20.0603764,33.5592171 20.0522116,33.5719179 20.0435428,33.5843163 C20.022274,33.6149595 20.0332612,33.6013515 20.0765044,33.5437947 C20.060578,33.5518587 20.0427364,33.5827035 20.0294308,33.5962107 C20.0139076,33.6121371 19.937602,33.6663675 20.0077588,33.6217131 C20.081242,33.5749419 20.0045332,33.6226203 19.9922356,33.6304827 C19.9697572,33.6448971 19.946674,33.6582027 19.922986,33.6703995 C19.9079668,33.6780603 19.8884116,33.6843099 19.8748036,33.6932811 C19.9805428,33.6229227 19.9362916,33.6675771 19.8911332,33.6820923 C19.8429508,33.6976155 19.7937604,33.7097115 19.744066,33.7194891 C19.722394,33.7237227 19.694674,33.7237227 19.6744132,33.7316859 C19.6989076,33.7284603 19.723402,33.7252347 19.7477956,33.7220091 C19.7285428,33.7243275 19.7093908,33.7265451 19.690138,33.7283595 C19.5804676,33.7390443 19.4702932,33.7420683 19.3603204,33.7436811 C19.1041876,33.7476123 18.8584372,33.9662475 18.8704324,34.2335691 C18.8821252,34.4956491 19.0857412,34.7275899 19.3603204,34.7235115 C19.8758116,34.7157963 20.4412996,34.6426155 20.7871444,34.2139131 C21.117466,33.8045643 21.2161492,33.2538939 21.2382244,32.7405195 C21.2587876,32.2600059 21.1815748,31.7610459 20.9260468,31.3454475 C20.78785,31.1209659 20.5960276,30.9091851 20.3607604,30.7837899 C20.0848708,30.6367227 19.7870068,30.6000315 19.4815828,30.6596043 C18.898354,30.7735083 18.495658,31.3170219 18.200818,31.7884635 C18.457354,31.7555019 18.7137892,31.7224395 18.9702244,31.6893771 C18.919018,31.6369611 18.8693236,31.5833355 18.8216452,31.5275931 C18.8013844,31.5038043 18.7818292,31.4794107 18.76177,31.4552187 C18.6910084,31.3702443 18.8258788,31.5451323 18.7618708,31.4551179 C18.6828436,31.3443387 18.607546,31.2319467 18.5409172,31.1133051 C18.5076532,31.0540347 18.4764052,30.9936555 18.4468708,30.9325707 C18.4309444,30.8996091 18.4161268,30.8661435 18.4008052,30.8328795 C18.3603844,30.7455867 18.4383028,30.9315627 18.4015108,30.8342907 C18.35353,30.7067787 18.3084724,30.5790651 18.2734948,30.4471179 C18.2574676,30.3865371 18.2429524,30.3253515 18.2302516,30.2639643 C18.2160388,30.1954203 18.214426,30.1135707 18.1926532,30.0475467 C18.23005,30.1608459 18.1999108,30.1015755 18.1950724,30.0532923 C18.191746,30.0221451 18.1890244,29.9907963 18.186706,29.9595483 C18.1812628,29.8866699 18.1782388,29.8134891 18.177634,29.7404091 C18.1765252,29.6042282 18.1857988,29.469257 18.1997092,29.3338826 C18.20989,29.2365098 18.1815652,29.4442586 18.1995076,29.3400314 C18.2047492,29.3090858 18.2097892,29.278241 18.2157364,29.2473962 C18.2292436,29.175425 18.2458756,29.1041594 18.2644228,29.033297 C18.3289348,28.7856314 18.1827748,28.489985 17.9223076,28.4306138 C17.6662756,28.3723514 17.3887731,28.5075242 17.3196243,28.7728298" id="Fill-15" stroke="none" fill="#F46800" fill-rule="evenodd"></path>
                        <path d="M56.8357853,32.7146643 C56.8357853,33.6600675 56.2461052,34.4264499 55.518934,34.4264499 C54.791662,34.4264499 54.2020828,33.6600675 54.2020828,32.7146643 C54.2020828,31.7691603 54.791662,31.0028787 55.518934,31.0028787 C56.2461052,31.0028787 56.8357853,31.7691603 56.8357853,32.7146643" id="Fill-17" stroke="none" fill="#360B60" fill-rule="evenodd"></path>
                        <path d="M56.7624533,32.0058185 C56.6446181,32.0248697 56.5204324,32.0122697 56.4023956,31.9626761 C54.6017044,31.2058697 53.5548964,32.3339225 53.5108468,32.3822057 C53.2690276,32.6504345 52.8536308,32.6755337 52.583386,32.4360329 C52.3131412,32.1966329 52.2839092,31.7865785 52.52089,31.5139145 C52.5888292,31.4358953 54.2146324,29.6147417 56.9126453,30.7486409 C57.2479061,30.8896601 57.4053557,31.2756233 57.2645381,31.6107833 C57.1731125,31.8281081 56.9788709,31.9706393 56.7624533,32.0058185" id="Fill-19" stroke="none" fill="#360B60" fill-rule="evenodd"></path>
                        <path d="M41.5285591,32.702659 C41.5285591,33.648163 40.9388791,34.4145454 40.2117079,34.4145454 C39.4844359,34.4145454 38.8948567,33.648163 38.8948567,32.702659 C38.8948567,31.7572558 39.4844359,30.9908734 40.2117079,30.9908734 C40.9388791,30.9908734 41.5285591,31.7572558 41.5285591,32.702659" id="Fill-21" stroke="none" fill="#360B60" fill-rule="evenodd"></path>
                        <path d="M41.219466,28.511778 C41.0740116,28.5492756 40.9189812,28.5559284 40.7696964,28.5244788 C38.4923219,28.0428564 37.2488531,29.340354 37.1967395,29.3958948 C36.9098627,29.7031332 36.3947747,29.7930468 36.0466115,29.5939668 C35.6983475,29.3950884 35.6408915,28.9871508 35.9213171,28.6759812 C36.0016547,28.586874 37.9289507,26.5020276 41.3415348,27.2236548 C41.7656004,27.3133668 41.9812116,27.6772548 41.8233588,28.0364052 C41.720946,28.2692532 41.4867876,28.4428308 41.219466,28.511778" id="Fill-23" stroke="none" fill="#FF8219" fill-rule="evenodd"></path>
                        <path d="M56.5235472,29.4036262 C56.3755728,29.3778214 56.2315296,29.3199622 56.1085536,29.2297462 C54.2317583,27.8527173 52.5643247,28.5229366 52.4937647,28.551967 C52.1058863,28.7138518 51.5993663,28.5835174 51.3640991,28.2588405 C51.1287311,27.9340629 51.2445503,27.5386245 51.6282959,27.3706917 C51.7381679,27.3225093 54.3532223,26.2167333 57.1654416,28.2801093 C57.5149152,28.5364438 57.561384,28.9568806 57.2696688,29.2191622 C57.0803664,29.3890102 56.7956064,29.4509014 56.5235472,29.4036262" id="Fill-25" stroke="none" fill="#FF8219" fill-rule="evenodd"></path>
                        <path d="M41.1763437,31.9439979 C41.0597181,31.9695003 40.9349277,31.9636539 40.8144717,31.9206123 C38.9753757,31.2626907 37.9912653,32.4458811 37.9499373,32.4965835 C37.7230365,32.7775131 37.3096557,32.8250907 37.0268109,32.6007099 C36.7439661,32.3762283 36.6926589,31.9683915 36.9144189,31.6833291 C36.9779229,31.6016811 38.5024221,29.6949483 41.2580925,30.6806715 C41.6005101,30.8031435 41.7787246,31.1799339 41.6562525,31.5223515 C41.5768221,31.7443131 41.3906445,31.8972267 41.1763437,31.9439979" id="Fill-27" stroke="none" fill="#360B60" fill-rule="evenodd"></path>
                        <path d="M40.4956514,41.5113393 C40.4956514,42.9866481 38.284301,44.1825393 35.5564513,44.1825393 C32.8286017,44.1825393 30.6172513,42.9866481 30.6172513,41.5113393 C30.6172513,40.0361313 32.8286017,38.8401393 35.5564513,38.8401393 C38.284301,38.8401393 40.4956514,40.0361313 40.4956514,41.5113393" id="Fill-29" stroke="none" fill="#FFA519" fill-rule="evenodd"></path>
                        <path d="M58.4380517,38.7393393 C55.8025348,38.7959889 53.9020516,40.0722177 53.9020516,41.5113393 C53.9020516,42.8672001 54.8084452,44.0101713 57.2284517,44.1825393 L58.4380517,38.7393393 Z" id="Fill-31" stroke="none" fill="#FFA519" fill-rule="evenodd"></path>
                        <path d="M56.1700516,9.86939227 C56.1700516,9.86939227 52.1884516,0.0321185284 33.7420513,0.233718531 C15.295651,0.435318534 9.38242055,20.2184276 9.38242055,20.2184276 L56.1700516,9.86939227 Z" id="Fill-35" stroke="none" fill="#321454" fill-rule="evenodd"></path>
                        <path d="M51.5836516,5.47533877 C51.5836516,5.47533877 53.2972516,13.6401389 48.3580515,20.192139 C44.3606259,25.4948239 36.4171826,26.8745743 30.2269537,27.0659935 C25.40448,27.2152783 21.6460511,26.6433391 21.6460511,26.6433391 L18.4204511,23.820939 L19.2268511,12.1281389 L51.5836516,5.47533877 Z" id="Fill-37" stroke="none" fill="#321454" fill-rule="evenodd"></path>
                        <path d="M50.6763332,8.29773881 C50.6763332,8.29773881 51.6471556,17.4114701 55.5148516,21.200139 C57.4027349,23.0496174 59.1582677,24.1183998 60.6065621,24.7332799 C62.2384133,25.4259775 63.8948598,23.8062222 63.2464134,22.1561262 C61.5191045,17.7606414 58.1561141,10.268278 54.2419492,7.08975159 C50.6012548,4.13318675 50.6763332,8.29773881 50.6763332,8.29773881" id="Fill-39" stroke="none" fill="#321454" fill-rule="evenodd"></path>
                        <path d="M55.5021609,94.78413 L73.7396028,94.78413 C73.7396028,94.78413 70.6148027,74.5490337 62.1476026,68.251352 C60.145009,66.7618304 54.1939785,65.5336832 46.8486824,64.5441296 C48.7518872,71.6891361 51.8548137,82.9628098 55.5021609,94.78413" id="Fill-59" stroke="none" fill="#5816B7" fill-rule="evenodd"></path>
                        <path d="M27.4560322,54.9218723 C27.418333,56.7241763 25.3215921,61.732122 22.5015105,62.0135556 L29.206021,76.4385398 L46.1404213,76.4385398 L46.8460213,64.5441396 C45.3296868,64.3621956 44.6516052,63.045546 44.2869108,61.5625764 L44.2885236,57.8099939 C44.2885236,57.8099939 34.3061987,60.4521636 27.4560322,54.9218723" id="Fill-61" stroke="none" fill="#FFFFFF" fill-rule="evenodd"></path>
                        <path d="M48.2674928,30.5229598 C47.946848,33.6685246 48.2073152,38.0732831 49.2603728,41.0545439 C49.3161152,41.2126991 49.374176,41.3854703 49.3195424,41.5438271 C49.2541232,41.7334319 49.0499024,41.8361472 48.8561648,41.8880592 C47.8983632,42.1447968 46.9213088,41.6277935 46.0643072,41.1292367" id="Stroke-63" stroke="#FF8219" stroke-width="1.20960002" fill="none" stroke-linecap="round"></path>
                        <path d="M6.82997299,66.7145149 C3.34713134,69.5388301 1.58363531,73.9839086 1.16682731,78.4486431 L0.557780421,88.9719644 C0.396951061,91.7508294 2.51928825,94.1339225 5.2981532,94.2947518 C5.35572516,94.2980839 5.41335007,94.3004275 5.47100247,94.3017818 L31.789115,94.92 L31.789115,94.92 C28.2417613,82.1804926 24.4226981,69.1226269 22.0738564,61.7321724 C16.0264611,61.9938492 11.8638243,62.6324172 6.82997299,66.7145149 Z" id="Fill-71" stroke="none" fill="#5816B7" fill-rule="evenodd"></path>
                        <path d="M41.872398,55.927312 C38.8216859,55.187944 35.4050699,53.4324112 32.1853162,50.2217295" id="Stroke-81" stroke="#FFA519" stroke-width="1.20960002" fill="none" stroke-linecap="round"></path>
                        <path d="M46.0950713,47.7652637 C46.0950713,47.7652637 43.4417129,47.3303117 42.7585913,45.5345597" id="Stroke-87" stroke="#FF8219" stroke-width="1.20960002" fill="none" stroke-linecap="round"></path>
                    </g>
                </g>
            </g>
        </g>
    </g>
</svg>