<?xml version="1.0" encoding="UTF-8"?>
<svg width="95px" height="95px" viewBox="0 0 95 95" version="1.1" xmlns="http://www.w3.org/2000/svg" xmlns:xlink="http://www.w3.org/1999/xlink">
    <!-- Generator: Sketch 63.1 (92452) - https://sketch.com -->
    <title>beast</title>
    <desc>Created with Sketch.</desc>
    <g id="Design-System" stroke="none" stroke-width="1" fill="none" fill-rule="evenodd">
        <g id="Tangelo" transform="translate(-1724.000000, -5637.000000)">
            <g id="beast" transform="translate(1724.000000, 5637.000000)">
                <circle id="Oval" fill="#60179C" fill-rule="nonzero" cx="47.2561037" cy="47.2292432" r="47.1413363"></circle>
                <g id="Group" transform="translate(19.046511, 9.523256)">
                    <g transform="translate(3.418605, 0.000000)" fill-rule="nonzero">
                        <path d="M2.82645343,24.4332553 C2.82645343,24.4332553 2.0047674,32.6867435 7.18029056,35.7586039 C7.18029056,35.7586039 5.73593012,13.0895928 27.8066855,0.0952325562 C17.7401159,15.5912788 26.5686623,34.5401156 35.3349412,15.7707555 C52.0421501,29.8993599 44.4369759,43.4516852 44.4369759,43.4516852 C47.98622,43.9632549 50.9677315,40.0855806 50.9677315,40.0855806 C50.994592,40.5629643 51.0092432,41.0440108 51.0092432,41.5287201 C51.0092432,55.6036035 39.5996504,67.0144173 25.523546,67.0144173 C11.4474416,67.0144173 0.0378488365,55.6048245 0.0378488365,41.5287201 C0.0378488365,39.2675574 0.0378488365,33.2801156 2.82645343,24.4332553 Z" id="Path" fill="#F37121"></path>
                        <g transform="translate(3.662791, 25.761627)">
                            <g>
                                <circle id="Oval" fill="#FBBF00" transform="translate(21.370904, 21.450336) rotate(-45.000000) translate(-21.370904, -21.450336) " cx="21.3709039" cy="21.4503364" r="15.1100874"></circle>
                                <path d="M16.4178485,26.7249413 C16.1065113,26.4221506 15.6071509,26.7566855 15.7683136,27.1595925 C16.6620346,29.3914529 18.8438368,30.9676738 21.39436,30.9676738 C23.9021507,30.9676738 26.0534297,29.442732 26.9740111,27.2706971 C27.1424995,26.8738948 26.6394762,26.5308134 26.3305809,26.8311623 C24.561453,28.5465692 20.8058717,30.9872087 16.4178485,26.7249413 Z" id="Path" fill="#60179C"></path>
                            </g>
                            <path d="M32.0384296,15.7158136 L25.9020344,16.2237206 C25.8299995,16.2237206 25.7579646,16.2273834 25.6847088,16.234709 C25.6297669,16.2408136 23.6530809,16.4776741 21.4505228,16.6058718 C21.3992438,16.6083136 21.3467438,16.6083136 21.2942438,16.6058718 C19.0916857,16.4764532 17.1149997,16.2408136 17.0576159,16.234709 C16.986802,16.2273834 16.9147671,16.2237206 16.8427322,16.2237206 L10.706337,15.7158136 C9.49883702,15.692616 8.83343006,16.285988 8.8956975,17.335988 C8.9848254,18.8206392 8.3340696,21.9291275 10.9444184,23.1329647 C16.3323834,25.6163367 18.6350578,19.5654066 20.6569182,18.6350578 C21.1294182,18.4177322 21.6507554,18.350581 22.0854065,18.6350578 C24.7250576,20.3651159 25.9240111,24.0877321 30.3230227,23.5187786 C33.8222086,23.0670344 33.8002319,19.732674 33.8466272,17.335988 C33.9113365,16.285988 33.2447086,15.692616 32.0384296,15.7158136 Z" id="Path" fill="#60179C"></path>
                        </g>
                    </g>
                    <path d="M45.8288363,18.3188368 C45.8288363,18.3188368 50.469592,22.7532554 51.6038362,27.9104646" id="Path" stroke="#F37121" stroke-width="2.15999996" stroke-linecap="round"></path>
                    <path d="M0.332093017,35.5681388 C0.332093017,35.5681388 -0.222209298,37.1956388 0.128197672,39.8999992" id="Path" stroke="#F37121" stroke-width="2.15999996" stroke-linecap="round"></path>
                    <circle id="Oval" fill="#F37121" fill-rule="nonzero" cx="10.5683719" cy="17.2370927" r="1"></circle>
                    <circle id="Oval" fill="#F37121" fill-rule="nonzero" cx="52.9285455" cy="34.759883" r="1"></circle>
                    <path d="M31.5915691,18.053895 C32.713604,19.2333136 33.3875575,19.8144764 33.1592435,20.5799996 C32.8454645,21.6324414 31.6599412,21.7826158 30.7833133,21.3748252 C28.760232,20.433488 28.3597669,16.6949997 31.0177319,13.7965114 C31.0189529,13.7965114 30.5586622,16.968488 31.5915691,18.053895 Z" id="Path" fill="#FBBF00" fill-rule="nonzero"></path>
                    <path d="M2.80813948,49.4879641 C2.80813948,49.4879641 1.0548837,54.9565105 4.76773246,59.3909291 C8.48058123,63.8253476 13.2238951,64.9595917 13.2238951,64.9595917 C13.2238951,64.9595917 4.56139526,60.1076151 2.80813948,49.4879641 Z" id="Path" fill="#FBBF00" fill-rule="nonzero"></path>
                    <path d="M56.0223826,42.1001154 C56.0223826,42.1001154 56.0223826,46.9752898 54.8539524,49.4879641 C54.8539524,49.4879641 56.4899989,48.562499 57.0394175,46.0876735 C57.590057,43.612848 56.0223826,42.1001154 56.0223826,42.1001154 Z" id="Path" fill="#FBBF00" fill-rule="nonzero"></path>
                </g>
            </g>
        </g>
    </g>
</svg>