<?xml version="1.0" encoding="UTF-8"?>
<svg width="362px" height="362px" viewBox="0 0 362 362" version="1.1" xmlns="http://www.w3.org/2000/svg" xmlns:xlink="http://www.w3.org/1999/xlink">
    <!-- Generator: sketchtool 62 (101010) - https://sketch.com -->
    <title>6B3827FD-3D68-41C6-9AFF-1B665EBB750A</title>
    <desc>Created with sketchtool.</desc>
    <defs>
        <circle id="path-1" cx="180.900002" cy="180.900002" r="180.900002"></circle>
        <polygon id="path-3" points="0 0.141487271 4.88093655 0.141487271 4.88093655 6.44092605 0 6.44092605"></polygon>
    </defs>
    <g id="Page-1" stroke="none" stroke-width="1" fill="none" fill-rule="evenodd">
        <g id="Homepage-" transform="translate(-882.000000, -825.000000)">
            <g id="Group-9" transform="translate(882.000000, 825.000000)">
                <g id="Group-3-Copy">
                    <mask id="mask-2" fill="white">
                        <use xlink:href="#path-1"></use>
                    </mask>
                    <use id="Mask" fill="#60179C" xlink:href="#path-1"></use>
                    <g mask="url(#mask-2)" id="Group">
                        <g transform="translate(35.640000, -9.720000)">
                            <g>
                                <path d="M102.686994,107.469218 C103.463609,108.807181 104.654197,109.923254 106.17762,110.598859 C112.504793,113.4056 126.617983,123.710232 139.333598,127.013742 C145.112671,128.515639 151.646831,128.896494 155.321261,125.899325 C165.973631,117.20919 122.067585,101.014541 112.342516,96.700935 C108.504152,94.9986753 104.013366,96.7290852 102.311106,100.567449 C101.284451,102.88239 101.506341,105.435779 102.686994,107.469218 Z" id="Path" fill="#F46800" fill-rule="nonzero"></path>
                                <path d="M107.62984,103.726896 C107.987513,105.384446 108.85189,106.947611 110.211379,108.164694 C115.856324,113.223452 127.084946,128.72097 139.219342,136.453998 C144.735127,139.969462 151.415006,142.570872 156.25353,140.68812 C170.283925,135.228636 130.000976,103.541436 121.322432,95.7653545 C117.898042,92.6969818 112.635609,92.9851074 109.567236,96.4094975 C107.715946,98.4727423 107.086706,101.20828 107.62984,103.726896 Z" id="Path" fill="#F5980A" fill-rule="nonzero"></path>
                                <path d="M109.951404,106.970794 C109.873577,108.664774 116.906161,113.428783 125.682403,128.331834 C129.000816,133.966844 142.304273,148.290332 147.464041,147.709113 C162.425049,146.020101 137.273665,111.11053 124.192098,98.5257309 C120.878653,95.3381337 110.070628,104.397533 109.951404,106.970794 Z" id="Path" fill="#FCC400" fill-rule="nonzero"></path>
                                <g transform="translate(58.784260, 119.555593)">
                                    <g id="Group-2" transform="translate(0.019871, 0.075123)">
                                        <path d="M2.23545776,28.6513374 C15.7210637,24.1489599 59.1452446,9.9016424 97.313616,0.161670146 C99.9531121,-0.512278971 102.6605,0.978026202 103.501694,3.56784541 C105.49208,9.69631146 134.841156,103.79418 141.469702,130.308365 C142.423498,134.125202 140.294017,138.036425 136.568254,139.303185 C132.531183,140.675921 127.755583,142.278827 126.397749,142.64478 L50.9916194,163.007316 L50.9916194,163.007316 C44.257096,161.954167 38.1286299,158.506595 33.7305738,153.298806 L33.5119957,153.040487 L-9.45826583e-13,33.953512 C-9.45826583e-13,33.953512 0.0430532606,29.3832428 2.23545776,28.6513374 Z" id="Path" fill="#F7F0DC" fill-rule="nonzero"></path>
                                        <path d="M33.6494349,152.434429 L47.2625447,149.55814 L50.9916194,162.459215 C49.7132688,164.972863 34.2422452,156.37877 33.6494349,152.434429 Z" id="Path" fill="#FCC400" fill-rule="nonzero"></path>
                                        <path d="M22.5797793,58.4027963 C27.4381741,56.8313523 32.3081603,55.2979939 37.1897376,53.8043769 C42.0729709,52.3107599 46.9661396,50.8568844 51.8725554,49.4427504 C56.8021537,48.0219928 61.7433433,46.6409767 66.6961242,45.299702 C71.6240666,43.965051 76.5636003,42.6701414 81.5130694,41.4166291 C86.4625385,40.161461 91.4219429,38.9476902 96.3912827,37.7736609 C97.015555,37.6262863 97.6398273,37.4789117 98.2640995,37.333193 C99.1980241,37.1146149 98.8022653,35.6772983 97.8683407,35.8958764 C92.897345,37.0599703 87.9346288,38.2638057 82.9835038,39.5090385 C78.0323789,40.7526154 73.0895334,42.0375896 68.1582791,43.3623053 C63.2038424,44.6936446 58.259341,46.0647254 53.3264309,47.4755476 C48.4183592,48.8797463 43.5202228,50.3236864 38.6353337,51.807368 C33.7504445,53.2910496 28.8754907,54.8144726 24.0154399,56.3759813 C23.4044148,56.5713768 22.7950456,56.7684283 22.1840204,56.9671357 C21.2749343,57.260229 21.6624136,58.6992014 22.5797793,58.4027963 L22.5797793,58.4027963 Z" id="Path" fill="#F2E5C4" fill-rule="nonzero"></path>
                                        <path d="M26.2227475,74.1337954 C31.0811423,72.5623513 35.9511285,71.0289929 40.8327058,69.535376 C45.7159391,68.041759 50.6091078,66.5878835 55.5155236,65.1737495 C60.4451219,63.7529919 65.3863115,62.3719758 70.3390924,61.0307011 C75.2670348,59.69605 80.2065685,58.4011404 85.1560376,57.1476282 C90.1055067,55.89246 95.0649111,54.6786893 100.034251,53.50466 C100.658523,53.3572854 101.282795,53.2099107 101.907068,53.064192 C102.840992,52.8456139 102.445233,51.4082974 101.511309,51.6268755 C96.5403132,52.7909694 91.577597,53.9948048 86.626472,55.2400376 C81.6753471,56.4836144 76.7325016,57.7685887 71.8012473,59.0933044 C66.8468106,60.4246437 61.9023092,61.7957244 56.9693991,63.2065467 C52.0613274,64.6107453 47.163191,66.0546854 42.2783019,67.538367 C37.3934127,69.0220486 32.5184589,70.5454717 27.6584081,72.1069803 C27.047383,72.3023759 26.4380138,72.4994274 25.8269886,72.6981347 C24.9179025,72.9912281 25.3053818,74.4302005 26.2227475,74.1337954 L26.2227475,74.1337954 Z" id="Path" fill="#F2E5C4" fill-rule="nonzero"></path>
                                        <path d="M31.5216103,89.368026 C36.3800052,87.796582 41.2499913,86.2632236 46.1315687,84.7696066 C51.014802,83.2759896 55.9079706,81.8221142 60.8143864,80.4079801 C65.7439848,78.9872225 70.6851744,77.6062064 75.6379552,76.2649318 C80.5658977,74.9302807 85.5054314,73.6353711 90.4549004,72.3818588 C95.4043695,71.1266907 100.363774,69.9129199 105.333114,68.7388906 C105.957386,68.591516 106.581658,68.4441414 107.205931,68.2984227 C108.139855,68.0798446 107.744096,66.642528 106.810172,66.8611061 C101.839176,68.0252 96.8764598,69.2290354 91.9253349,70.4742682 C86.9742099,71.7178451 82.0313644,73.0028193 77.1001102,74.327535 C72.1456734,75.6588743 67.201172,77.0299551 62.2682619,78.4407773 C57.3601902,79.844976 52.4620539,81.2889161 47.5771647,82.7725977 C42.6922755,84.2562793 37.8173217,85.7797023 32.957271,87.341211 C32.3462458,87.5366065 31.7368766,87.733658 31.1258515,87.9323654 C30.2167653,88.2254587 30.6042447,89.6644312 31.5216103,89.368026 L31.5216103,89.368026 Z" id="Path" fill="#F2E5C4" fill-rule="nonzero"></path>
                                        <path d="M36.8204731,105.761383 C41.678868,104.189939 46.5488541,102.65658 51.4304315,101.162964 C56.3136648,99.6693466 61.2068335,98.2154711 66.1132493,96.801337 C71.0428476,95.3805794 75.9840372,93.9995633 80.9368181,92.6582887 C85.8647605,91.3236376 90.8042942,90.028728 95.7537633,88.7752157 C100.703232,87.5200476 105.662637,86.3062768 110.631977,85.1322475 C111.256249,84.9848729 111.880521,84.8374983 112.504793,84.6917796 C113.438718,84.4732015 113.042959,83.0358849 112.109035,83.254463 C107.138039,84.4185569 102.175323,85.6223923 97.2241977,86.8676251 C92.2730727,88.111202 87.3302272,89.3961762 82.398973,90.7208919 C77.4445363,92.0522312 72.5000349,93.423312 67.5671248,94.8341342 C62.6590531,96.2383329 57.7609167,97.682273 52.8760275,99.1659546 C47.9911384,100.649636 43.1161846,102.173059 38.2561338,103.734568 C37.6451087,103.929963 37.0357394,104.127015 36.4247143,104.325722 C35.5156282,104.618816 35.9031075,106.057788 36.8204731,105.761383 L36.8204731,105.761383 Z" id="Path" fill="#F2E5C4" fill-rule="nonzero"></path>
                                        <path d="M42.6161044,122.320329 C47.4744992,120.748885 52.3444854,119.215527 57.2260628,117.72191 C62.109296,116.228293 67.0024647,114.774417 71.9088805,113.360283 C76.8384788,111.939526 81.7796684,110.55851 86.7324493,109.217235 C91.6603917,107.882584 96.5999254,106.587674 101.549394,105.334162 C106.498864,104.078994 111.458268,102.865223 116.427608,101.691194 C117.05188,101.543819 117.676152,101.396445 118.300425,101.250726 C119.234349,101.032148 118.83859,99.5948313 117.904666,99.8134094 C112.93367,100.977503 107.970954,102.181339 103.019829,103.426571 C98.068704,104.670148 93.1258585,105.955123 88.1946042,107.279838 C83.2401675,108.611178 78.2956661,109.982258 73.362756,111.393081 C68.4546843,112.797279 63.5565479,114.241219 58.6716588,115.724901 C53.7867696,117.208583 48.9118158,118.732006 44.051765,120.293514 C43.4407399,120.490566 42.8313707,120.685961 42.2203456,120.884669 C41.3112594,121.177762 41.6987387,122.616734 42.6161044,122.320329 L42.6161044,122.320329 Z" id="Path" fill="#F2E5C4" fill-rule="nonzero"></path>
                                        <path d="M46.424662,139.044865 C51.2830569,137.473421 56.153043,135.940063 61.0346204,134.446446 C65.9178537,132.952829 70.8110224,131.498953 75.7174382,130.084819 C80.6470365,128.664062 85.5882261,127.283046 90.5410069,125.941771 C95.4689494,124.60712 100.408483,123.31221 105.357952,122.058698 C110.307421,120.80353 115.266826,119.589759 120.236165,118.41573 C120.860438,118.268355 121.48471,118.12098 122.108982,117.975262 C123.042907,117.756684 122.647148,116.319367 121.713223,116.537945 C116.742228,117.702039 111.779512,118.905875 106.828387,120.151107 C101.877262,121.39634 96.9344161,122.679658 92.0031619,124.004374 C87.0487252,125.335713 82.1042238,126.706794 77.1713137,128.117616 C72.2632419,129.521815 67.3651056,130.965755 62.4802164,132.449437 C57.5953273,133.933118 52.7203734,135.456541 47.8603227,137.01805 C47.2492976,137.215102 46.6399283,137.410497 46.0289032,137.609204 C45.1198171,137.902298 45.5072964,139.34127 46.424662,139.044865 L46.424662,139.044865 Z" id="Path" fill="#F2E5C4" fill-rule="nonzero"></path>
                                        <g id="Group-16" transform="translate(46.398283, 24.217482)">
                                            <path d="M33.328533,16.9887388 L7.48917065,71.815103 L50.7407725,49.9489786 L33.328533,16.9887388 Z M2.8626507,76.5759063 L33.2188721,12.1662655 L53.6747007,50.8880942 L2.8626507,76.5759063 Z" id="Fill-1" fill="#B99FBD"></path>
                                            <path d="M47.584441,60.1156647 C47.4312297,60.113048 47.2759457,60.0799284 47.1283144,60.0122964 C47.0471649,59.9753077 45.1230151,59.0820081 43.4204717,57.1471447 C41.8304852,55.3404261 40.1293767,52.2541161 41.0548626,47.8131541 C41.9939,43.3075007 44.6241614,40.8634626 46.6653322,39.6064669 C48.8785271,38.2439219 50.8847829,37.952965 50.9689615,37.9412029 C51.5786184,37.856392 52.1447511,38.2676008 52.2319589,38.8600386 C52.3191666,39.4510835 51.8973172,39.9989492 51.2892546,40.0853077 C51.0183845,40.1250821 44.7252395,41.1282644 43.2425488,48.2429346 C41.8223543,55.0575169 47.826295,57.9344307 48.0824976,58.053754 C48.6371514,58.3114366 48.8740631,58.9571133 48.6102079,59.4961574 C48.4165015,59.8921993 48.0080442,60.1221791 47.584441,60.1156647" id="Fill-3" fill="#B99FBD"></path>
                                            <path d="M33.9377693,28.6248869 C33.6147181,28.6195737 33.2826381,28.60129 32.9409171,28.568942 C28.4148346,28.1396667 25.742279,25.8396764 24.2973483,23.9859949 C22.7307569,21.9758865 22.2390642,20.0521957 22.218864,19.9712476 C22.0730242,19.3857017 22.4194893,18.7901546 22.9929012,18.641385 C23.5647828,18.4923029 24.1473767,18.8451618 24.2945937,19.4288324 C24.3648355,19.7016808 26.0007505,25.7134098 33.1390938,26.3903739 C39.987441,27.040772 42.1975331,20.878242 42.2882812,20.6153949 C42.4850807,20.0468825 43.0953734,19.7465305 43.6525639,19.9456192 C44.2099075,20.1445516 44.5049537,20.7646333 44.31198,21.3343958 C44.2838221,21.4173755 43.6029815,23.388885 41.8754002,25.2566309 C40.3853249,26.8676243 37.8324406,28.688489 33.9377693,28.6248869" id="Fill-5" fill="#B99FBD"></path>
                                            <path d="M15.5457885,79.438557 C15.3638641,79.4354337 15.1804211,79.3841532 15.0135305,79.2800241 C14.5120993,78.9666957 14.3509793,78.2937767 14.6525669,77.7754833 C14.7893898,77.5375858 17.8192365,72.1078153 13.3159234,66.4152127 C8.99984968,60.9594099 3.19239043,63.6811953 2.94729357,63.799752 C2.4168578,64.0563111 1.78376684,63.8223342 1.5336587,63.2751857 C1.28355057,62.728194 1.50738748,62.0759754 2.03630468,61.8159662 C2.11344793,61.7783292 3.95258552,60.8871154 6.44895931,60.8337962 C8.7801129,60.7837703 12.1496632,61.4708032 14.9623547,65.0262491 C17.8161994,68.6336027 18.0840748,72.2042602 17.8063287,74.5644164 C17.5051967,77.1235784 16.5152423,78.8373183 16.4733298,78.9088287 C16.2702973,79.2552463 15.9114597,79.4445293 15.5457885,79.438557" id="Fill-7" fill="#B99FBD"></path>
                                            <g id="Group-11" transform="translate(0.000000, 78.722894)">
                                                <mask id="mask-4" fill="white">
                                                    <use xlink:href="#path-3"></use>
                                                </mask>
                                                <g id="Clip-10"></g>
                                                <path d="M2.62324166,1.32886515 C2.46529888,1.27026808 2.33950129,1.26272744 2.24626634,1.30624323 C1.93942597,1.44920121 1.69576271,1.70574009 1.5151374,2.07617408 C1.33451209,2.44676516 1.22666571,2.85144622 1.19215486,3.29037436 C1.1573657,3.72930249 1.19939101,4.11089034 1.31767414,4.43466661 C1.4333133,4.75074514 1.56147656,4.99487339 1.70244223,5.16705135 C1.8434079,5.33938642 2.01053501,5.38023155 2.20396273,5.29021515 C2.37067237,5.21260939 2.54183503,5.06682367 2.71731154,4.85301508 C2.89278805,4.6390494 3.03041396,4.39649211 3.13032842,4.12550033 C3.23010373,3.85419436 3.26823264,3.6009545 3.24457602,3.36515238 L3.01093203,1.63708884 C2.91046095,1.49004635 2.78104528,1.38746221 2.62324166,1.32886515 M4.88077969,5.08740333 C4.88384113,5.13861685 4.84209414,5.21119552 4.75526041,5.30435386 C4.66828751,5.39766929 4.58827245,5.46160764 4.5149369,5.49554052 C4.27489172,5.60739336 4.08856099,5.64792431 3.95650134,5.61713336 C3.82416339,5.5863424 3.72911941,5.4917702 3.67136941,5.33357384 C3.61640254,5.18307521 3.57465555,5.02644982 3.54626759,4.86322636 C3.48211639,5.15731136 3.33516698,5.44385571 3.10541939,5.72270233 C2.87553263,6.00154894 2.67403383,6.18142465 2.50078382,6.26217234 C2.05395188,6.47032545 1.6284109,6.49671769 1.2244392,6.34119198 C0.820328342,6.18582335 0.500128933,5.78459842 0.263423503,5.13688879 C0.0404945797,4.52703946 -0.0409120496,3.89331143 0.0190644585,3.23554761 C0.0791801232,2.57778379 0.275808443,1.97940252 0.609784359,1.44071799 C0.943481961,0.902033455 1.3871133,0.503950455 1.94067838,0.245997699 C2.04727236,0.196355146 2.19909225,0.163207746 2.39585972,0.146241304 C2.5926272,0.129431959 2.80762419,0.157238072 3.04071155,0.229031257 C3.27365975,0.301138635 3.49450133,0.429643723 3.70254049,0.614546522 C3.75583748,0.589882342 3.83014712,0.590667826 3.92560857,0.616431682 C4.02093086,0.642509732 4.07965496,0.68571132 4.10164171,0.74587935 C4.12641159,0.813745118 4.14116219,0.886009593 4.14589352,0.963144065 L4.6166604,4.58940684 C4.70154595,4.77902254 4.78949294,4.94491664 4.88077969,5.08740333" id="Fill-9" fill="#B99FBD" mask="url(#mask-4)"></path>
                                            </g>
                                            <path d="M59.900954,52.3887221 C59.7497411,52.7248498 59.5155437,53.047389 59.1980697,53.3572357 C58.8807417,53.6669331 58.4978151,53.9161544 58.0498743,54.1050489 C57.3636453,54.3945876 56.7976561,54.4637245 56.3516145,54.3126089 C55.9054269,54.1616426 55.5886833,53.8537371 55.4009455,53.3884444 C55.1293467,52.7158903 55.0453395,52.0204898 55.148924,51.30284 C55.2523624,50.5850408 55.5198705,49.9386185 55.951156,49.3629755 C56.3824415,48.7876312 56.9199413,48.3639998 57.5642398,48.09238 C57.9633834,47.9239428 58.3425114,47.9043814 58.7017699,48.0333971 C59.0611745,48.1624128 59.3231308,48.4307475 59.4877848,48.8386999 C59.5513381,48.9960871 59.5411111,49.1531757 59.4569578,49.3101149 C59.3728046,49.4670542 59.2256825,49.5897983 59.0155915,49.6784965 C58.8477232,49.749276 58.7179869,49.7582354 58.6266748,49.7041802 C58.5353627,49.650573 58.4637739,49.5593362 58.4117625,49.4304698 L58.3226419,49.1793073 C58.2878702,49.0934462 58.2142361,49.0429748 58.1015935,49.0275944 C57.9888047,49.0122141 57.8799606,49.0266985 57.7750612,49.0708983 C57.5579575,49.1625831 57.3190849,49.4182253 57.0584436,49.8379743 C56.7978022,50.2577233 56.6164928,50.7427267 56.5148076,51.2919393 C56.4129763,51.8417493 56.4617735,52.3631877 56.6611992,52.8570012 C56.7418461,53.0573937 56.8810788,53.1784952 57.0786053,53.2210525 C57.2756934,53.2634604 57.524939,53.2210525 57.8260499,53.0941273 C58.0151026,53.0143884 58.2162815,52.8835809 58.4295867,52.7015553 C58.6427457,52.519679 58.7564111,52.3545269 58.7702905,52.2060992 C58.8291686,51.6622622 58.9567134,51.3486824 59.1527788,51.265957 C59.4397181,51.1450048 59.6565297,51.1187238 59.8027752,51.1865168 C59.9490207,51.2549071 60.0531896,51.3554019 60.1149897,51.4883 C60.1234634,51.7529017 60.0521669,52.052893 59.900954,52.3887221" id="Fill-12" fill="#B99FBD"></path>
                                            <path d="M35.5966379,7.43992571 C35.8436767,7.49112703 36.0448876,7.48627173 36.2002705,7.42521268 C36.5477605,7.28852869 36.8023601,7.0170734 36.9642238,6.61099393 C37.1260875,6.2050616 37.2040104,5.76587784 37.1989184,5.29344264 C37.1935178,4.8213017 37.1205326,4.42302014 36.9802713,4.09845083 C36.8825976,3.87290017 36.7387874,3.71076265 36.5491492,3.61203826 C36.3592024,3.51360813 36.1425613,3.51228396 35.8984542,3.60836 C35.683819,3.69266563 35.4747387,3.8287611 35.2702874,4.01620503 C35.0659905,4.20394321 34.9069043,4.42125458 34.7930288,4.66813912 C34.6793076,4.91517079 34.6379545,5.16440942 34.6689693,5.41614926 L34.9763406,7.17641545 C35.142679,7.30103476 35.3492905,7.38857725 35.5966379,7.43992571 M35.1047205,8.462628 C35.1082695,8.65110184 35.1000914,8.792494 35.080495,8.88665735 C35.0607442,8.98140923 34.9954741,9.05011905 34.8845304,9.09381673 L34.5785479,9.22667534 C34.3935388,9.29935767 34.2298235,9.32054443 34.0867848,9.2902356 C33.9439004,9.25977964 33.8161377,9.13486607 33.7038052,8.91490636 C33.7081257,8.90504863 33.7107488,8.81117954 33.7116746,8.63315195 C33.7126005,8.45556575 33.6900723,8.2232471 33.6436271,7.93604887 C33.5828318,7.5557172 33.5235795,7.17876953 33.4658703,6.80535298 C33.408161,6.43208356 33.3512233,6.07087883 33.2953656,5.72144451 C33.2263923,5.26180964 33.1196147,4.57574133 32.9756502,3.66279819 C32.8315314,2.75000219 32.7134897,2.02715132 32.6212166,1.49395133 C32.5681364,1.39125442 32.4973114,1.24794957 32.4090502,1.06388964 C32.3209433,0.880123969 32.2538216,0.735053553 32.208148,0.629266911 C32.1907117,0.529071218 32.241786,0.422254664 32.3616793,0.309111509 C32.4814183,0.195968355 32.6003857,0.116076635 32.718736,0.069583479 C32.9034365,-0.00309885939 33.121775,-0.018841795 33.3732886,0.0223546721 C33.6249565,0.0638453997 33.790832,0.167425088 33.8715324,0.333829389 L34.3943103,3.79168428 C34.4993905,3.49462833 34.6751415,3.24612535 34.9217174,3.04573397 C35.168139,2.84548971 35.4134805,2.69747669 35.6575875,2.60140064 C36.0049232,2.46471665 36.3585852,2.43705617 36.7184194,2.51827206 C37.077945,2.59948795 37.405067,2.76603938 37.6999397,3.01704357 C37.994658,3.26834202 38.2168541,3.56657502 38.3663735,3.91203682 C38.5861008,4.41978328 38.6760593,4.96813768 38.6368664,5.55710003 C38.5973649,6.14606238 38.4052579,6.69191557 38.060391,7.1946596 C37.7153699,7.69740362 37.2214466,8.07538121 36.5781582,8.32844522 C36.3933034,8.40127469 36.1383951,8.42731674 35.813742,8.40642425 C35.4887802,8.38582602 35.2476049,8.30343308 35.0899074,8.15895119 C35.0885187,8.27518408 35.0933021,8.37640968 35.1047205,8.462628" id="Fill-14" fill="#B99FBD"></path>
                                        </g>
                                    </g>
                                    <g transform="translate(5.464452, 0.993537)" fill="#4D1087" fill-rule="nonzero">
                                        <ellipse id="Oval" transform="translate(90.385697, 6.946345) rotate(-19.469593) translate(-90.385697, -6.946345) " cx="90.3856973" cy="6.9463447" rx="3.61143529" ry="3.18753459"></ellipse>
                                        <path d="M88.592019,4.52224825 L90.4979537,4.12483354 C90.4979537,4.12483354 89.7296186,1.70557148 88.7592643,0.0463650498 C88.1366479,0.20698683 87.5140316,0.370920399 86.8897593,0.533198073 C87.7706952,2.2851346 88.592019,4.52224825 88.592019,4.52224825 Z" id="Path"></path>
                                        <ellipse id="Oval" transform="translate(75.086871, 11.270999) rotate(-19.469593) translate(-75.086871, -11.270999) " cx="75.0868708" cy="11.2709989" rx="3.61143529" ry="3.18753459"></ellipse>
                                        <path d="M70.6735831,3.31178927 C71.7979356,4.77228834 73.2932084,8.84744504 73.2932084,8.84744504 L75.1991431,8.45003033 C75.1991431,8.45003033 73.6061725,3.42935779 72.1075879,2.89615972 C71.8343652,2.79680604 70.4964024,3.07996402 70.6735831,3.31178927 Z" id="Path"></path>
                                        <ellipse id="Oval" transform="translate(57.932968, 16.433193) rotate(-19.469593) translate(-57.932968, -16.433193) " cx="57.9329685" cy="16.4331926" rx="3.61143529" ry="3.18753459"></ellipse>
                                        <path d="M53.5201706,8.47486875 C54.644523,9.93536782 56.1397959,14.0105245 56.1397959,14.0105245 L58.0457306,13.6131098 C58.0457306,13.6131098 56.45276,8.59243727 54.9541753,8.0592392 C54.6809527,7.96154141 53.3429898,8.2446994 53.5201706,8.47486875 Z" id="Path"></path>
                                        <ellipse id="Oval" transform="translate(19.017888, 28.039311) rotate(-19.469593) translate(-19.017888, -28.039311) " cx="19.0178883" cy="28.0393106" rx="3.61143529" ry="3.18753459"></ellipse>
                                        <path d="M14.6049907,20.0826902 C15.7293432,21.5431892 17.224616,25.6183459 17.224616,25.6183459 L19.1305507,25.2209312 C19.1305507,25.2209312 17.5375801,20.2002587 16.0389955,19.6670606 C15.7641169,19.5677069 14.42781,19.8525208 14.6049907,20.0826902 Z" id="Path"></path>
                                        <ellipse id="Oval" transform="translate(4.627960, 32.399131) rotate(-19.469593) translate(-4.627960, -32.399131) " cx="4.62796007" cy="32.3991311" rx="3.61143529" ry="3.18753459"></ellipse>
                                        <path d="M0.216922197,24.4426607 C1.34127466,25.9031598 2.83654751,29.9783165 2.83654751,29.9783165 L4.74248224,29.5809018 C4.74248224,29.5809018 3.1495116,24.5602293 1.65092695,24.0270312 C1.37604844,23.9293334 0.0397414713,24.2124914 0.216922197,24.4426607 Z" id="Path"></path>
                                    </g>
                                </g>
                                <path d="M0,62.5928173 C4.82693287,71.8426447 10.2665467,81.1388372 33.1096133,95.3878105 C43.2900535,101.738166 54.4706541,106.238888 65.0418854,111.911983 C75.6131168,117.585078 84.3264344,123.046219 91.074205,132.966683 C96.7042468,141.246157 96.8698362,161.282482 106.273662,158.435999 C108.384928,157.796824 110.830684,155.4024 111.70334,153.377241 C112.575997,151.352082 112.710124,149.09013 112.716748,146.884478 C112.733307,140.691432 107.078427,132.58086 108.295509,126.508694 C109.654999,119.736085 118.595174,115.535081 125.693994,128.33349 L143.731654,123.198561 C143.731654,123.198561 134.955413,106.805204 117.106525,91.7398747 C99.2162389,76.6397715 62.6325587,56.7773153 48.7776883,37.90674 C45.9163024,34.0104199 43.3380744,29.8706834 41.5612995,25.3765853 C39.0890488,19.1173036 38.2395748,12.352974 37.4116275,5.67309503 L17.5425478,0.152342307 L0,62.5928173 Z" id="Path" fill="#FCC400" fill-rule="nonzero"></path>
                            </g>
                            <g transform="translate(119.224414, 216.756608)">
                                <path d="M23.4441563,52.317991 C18.2794209,48.3769618 10.7848418,45.0055603 4.51893646,44.8035412 C3.80855766,44.7803587 0.177180726,45.0386782 0.13578336,48.0358475 C0.0844506265,51.7765135 1.82479589,53.9175853 3.92778208,56.1248928 C6.02911237,58.3305445 8.64211411,59.9748478 11.2551158,61.5413242 C14.7043444,63.6095366 18.3125388,65.6247603 22.2916536,66.2026676 C23.4706506,66.3732247 24.831796,66.353354 25.6514638,65.488977 C26.5208085,64.5732673 27.7461705,63.5267418 27.5723016,62.2748855" id="Path" fill="#FF9C1A" fill-rule="nonzero"></path>
                                <g transform="translate(3.477379, 0.000000)">
                                    <g id="Group-4" transform="translate(0.027113, 0.028769)">
                                        <path d="M78.4854755,103.1285 L49.1413667,115.161886 C43.2960586,117.557965 36.6145238,114.762815 34.2184442,108.919163 L2.94521811,32.6585915 C0.549138575,26.8132834 3.34428872,20.1317485 9.1879409,17.735669 L38.5320498,5.70228268 C44.3773578,3.30620315 51.0588927,6.10135329 53.4549722,11.9450055 L84.7281983,88.2055771 C87.1242779,94.0508851 84.3291277,100.73242 78.4854755,103.1285 Z" id="Path" fill="#360B60" fill-rule="nonzero"></path>
                                        <path d="M82.6417711,83.3620853 L51.368545,7.10151365 C48.9724654,1.25620559 42.2909306,-1.53894456 36.4456225,0.858790873 L7.10151365,12.8921772 C1.25620559,15.2882567 -1.53894456,21.9697916 0.858790873,27.8150997 L32.132017,104.075671 C34.5280965,109.920979 41.2096314,112.716129 47.0549394,110.318394 L76.3990483,98.2850077 C82.2427005,95.8872723 85.0378506,89.2057374 82.6417711,83.3620853 Z" id="Path" fill="#F46800" fill-rule="nonzero"></path>
                                        <path d="M28.5188549,12.910392 L21.3786372,15.8380138 C20.8918042,16.038377 20.3354236,15.8048959 20.1350603,15.3180628 L19.7343338,14.341085 C19.5339706,13.854252 19.7674517,13.2978714 20.2542848,13.0975081 L27.3945024,10.1698864 C27.8813354,9.96952316 28.437716,10.2030043 28.6380793,10.6898373 L29.0388058,11.6668152 C29.2391691,12.1536482 29.0056879,12.7100288 28.5188549,12.910392 Z" id="Path" fill="#360B60" fill-rule="nonzero"></path>
                                        <circle id="Oval" stroke="#60169C" stroke-width="0.687196213" cx="48.5220621" cy="112.61512" r="1"></circle>
                                        <circle id="Oval" stroke="#60169C" stroke-width="0.687196213" cx="49.7010591" cy="112.131599" r="1"></circle>
                                        <circle id="Oval" stroke="#60169C" stroke-width="0.687196213" cx="50.8800561" cy="111.648077" r="1"></circle>
                                        <circle id="Oval" stroke="#60169C" stroke-width="0.687196213" cx="52.059053" cy="111.166212" r="1"></circle>
                                        <circle id="Oval" stroke="#60169C" stroke-width="0.687196213" cx="53.0989549" cy="110.738991" r="1"></circle>
                                        <circle id="Oval" stroke="#60169C" stroke-width="0.687196213" cx="54.2779519" cy="110.25547" r="1"></circle>
                                        <circle id="Oval" stroke="#60169C" stroke-width="0.687196213" cx="70.0967133" cy="103.769331" r="1"></circle>
                                        <circle id="Oval" stroke="#60169C" stroke-width="0.687196213" cx="71.2757103" cy="103.28581" r="1"></circle>
                                        <circle id="Oval" stroke="#60169C" stroke-width="0.687196213" cx="72.4547073" cy="102.802288" r="1"></circle>
                                        <circle id="Oval" stroke="#60169C" stroke-width="0.687196213" cx="73.6337043" cy="102.318767" r="1"></circle>
                                        <circle id="Oval" stroke="#60169C" stroke-width="0.687196213" cx="74.6736061" cy="101.891546" r="1"></circle>
                                        <circle id="Oval" stroke="#60169C" stroke-width="0.687196213" cx="75.8526031" cy="101.408025" r="1"></circle>
                                        <path d="M65.1787062,106.885724 L60.2275813,108.915851 C59.8930906,109.053291 59.5105789,108.892669 59.3731397,108.558178 L59.0982611,107.887541 C58.9608219,107.55305 59.1214437,107.170538 59.4559344,107.033099 L64.4070593,105.002972 C64.7415501,104.865533 65.1240617,105.026155 65.261501,105.360646 L65.5363795,106.031283 C65.6721628,106.365774 65.513197,106.748285 65.1787062,106.885724 Z" id="Path" stroke="#60169C" stroke-width="0.824635529"></path>
                                        <polygon id="Path" fill="#FF8219" fill-rule="nonzero" points="75.8045821 75.7333787 32.2595209 93.8306511 4.86605589 27.4574264 48.4127731 9.36015394"></polygon>
                                        <path d="M29.3799201,51.2923738 L27.3133636,46.2154009 C26.9689375,45.3675828 27.3762876,44.4021962 28.2224497,44.0577702 L33.4633563,41.9249779" id="Path" stroke="#60169C" stroke-width="1.37439255" stroke-linecap="round"></path>
                                        <path d="M41.3470706,61.2923215 L36.1061641,63.4251138 C35.2583461,63.7695399 34.2929595,63.3621898 33.9485334,62.5160277 L31.7892468,57.2121971" id="Path" stroke="#60169C" stroke-width="1.37439255" stroke-linecap="round"></path>
                                        <path d="M51.3453625,49.7871656 L53.317533,54.6323133 C53.661959,55.4801314 53.254609,56.4455179 52.4084468,56.789944 L47.3331297,58.8565005" id="Path" stroke="#60169C" stroke-width="1.37439255" stroke-linecap="round"></path>
                                        <path d="M39.6414992,39.4096739 L44.5230765,37.4226003 C45.3708946,37.0781743 46.3362812,37.4855243 46.6807073,38.3316865 L48.7472638,43.4086595" id="Path" stroke="#60169C" stroke-width="1.37439255" stroke-linecap="round"></path>
                                        <path d="M57.6427298,99.6295942 C55.4867549,99.773657 53.3821129,98.5433273 52.5177359,96.4370293 C51.4380926,93.8025009 52.7015402,90.7804932 55.3360685,89.7008499 C57.9705969,88.6195507 60.9926046,89.8846542 62.0722479,92.5191826 L62.0722479,92.5191826 C63.1518912,95.153711 61.8884436,98.1757187 59.2539152,99.255362 C58.7256848,99.4722842 58.1825514,99.5931645 57.6427298,99.6295942 Z M56.9820278,89.8432569 C56.4968507,89.8763748 56.0067059,89.9856638 55.53312,90.1810594 C53.1635348,91.1530695 52.0259351,93.8703926 52.9979453,96.2399778 C53.9699555,98.6095631 56.6889344,99.7471627 59.0568638,98.7751525 C61.426449,97.8031424 62.5640486,95.0858193 61.5920385,92.7162341 C60.8154239,90.8202347 58.9210804,89.7140971 56.9820278,89.8432569 Z" id="Shape" fill="#E55403" fill-rule="nonzero"></path>
                                        <circle id="Oval" fill="#FCC400" fill-rule="nonzero" opacity="0.3" cx="50.8353469" cy="78.5748939" r="4.90475991"></circle>
                                        <circle id="Oval" fill="#FCC400" fill-rule="nonzero" cx="50.8353469" cy="78.5748939" r="3.77378388"></circle>
                                    </g>
                                    <g transform="translate(48.020944, 109.785814)"></g>
                                    <g transform="translate(69.547575, 100.843983)"></g>
                                    <line x1="20.1108404" y1="86.7937174" x2="22.0349899" y2="91.5130171" id="Path" fill="#F7F6F5" fill-rule="nonzero" opacity="0.24"></line>
                                    <g transform="translate(26.402095, 36.273010)">
                                        <g transform="translate(0.754577, 0.984619)"></g>
                                    </g>
                                </g>
                                <path d="M193.479697,123.413827 C175.175438,133.518096 129.669797,159.151345 61.0081261,111.993122 L78.4430407,104.513446 C84.3827348,102.324353 86.3979586,97.2655951 86.4045821,93.5597029 C86.4145175,88.8238442 83.5282932,84.3744553 80.2314069,80.9749036 C77.2392053,77.8899719 73.3097674,75.9327045 69.5823485,73.7916327 C65.8549297,71.6522168 62.1275109,69.1385688 59.9930627,65.409494 C57.8586145,61.6804193 57.8072818,56.4378569 60.946858,53.5019557 C62.2550148,52.2782496 64.2967328,51.5678708 65.8532738,52.4537744 C65.8532738,52.4537744 85.5021196,66.4742343 95.6924952,72.1556088 C147.220624,100.888693 161.491124,77.8171126 175.67055,71.9734604" id="Path" fill="#FCC400" fill-rule="nonzero"></path>
                                <path d="M13.6959045,65.5701158 C11.5598005,68.0324312 11.7303576,71.3326292 13.0964707,74.2917129 C14.4609279,77.2524525 17.0590265,79.4978456 19.912133,81.0709455 C23.0947625,82.8261938 26.6764626,83.8478808 30.3061836,84.0383087 C32.1790005,84.1360065 34.2836426,83.9124607 35.5040369,82.4900472 C36.5803684,81.2348791 36.6350129,79.3355679 36.0239878,77.7988977 C35.4129627,76.2622275 34.2439011,75.0186506 33.0334421,73.8909864 C28.8274697,69.9698279 23.7918941,66.9445084 18.3572479,65.0700356 C17.0921444,64.6361913 15.0802325,63.9738334 13.6959045,65.5701158 Z" id="Path" fill="#FCC400" fill-rule="nonzero"></path>
                                <path d="M17.8472324,81.2133525 C15.7111283,83.6756678 15.8816855,86.9758658 17.2477985,89.9349495 C18.6139116,92.8940332 21.2103544,95.1410822 24.0634609,96.7141822 C27.2460904,98.4694305 30.8277905,99.4911175 34.4575115,99.6815453 C36.3303283,99.7792431 38.4349704,99.5556973 39.6553648,98.1332839 C40.7316963,96.8781157 40.7863408,94.9788046 40.1753157,93.4421344 C39.5642906,91.9054641 38.3952289,90.6618873 37.18477,89.534223 C32.9787976,85.6130645 27.943222,82.587745 22.5085758,80.7132723 C21.2434723,80.277772 19.2315603,79.61707 17.8472324,81.2133525 Z" id="Path" fill="#FCC400" fill-rule="nonzero"></path>
                            </g>
                        </g>
                    </g>
                </g>
            </g>
        </g>
    </g>
</svg>