<?xml version="1.0" encoding="UTF-8"?>
<svg width="95px" height="95px" viewBox="0 0 95 95" version="1.1" xmlns="http://www.w3.org/2000/svg" xmlns:xlink="http://www.w3.org/1999/xlink">
    <!-- Generator: Sketch 63.1 (92452) - https://sketch.com -->
    <title>high achiever</title>
    <desc>Created with Sketch.</desc>
    <g id="Design-System" stroke="none" stroke-width="1" fill="none" fill-rule="evenodd">
        <g id="Tangelo" transform="translate(-1531.000000, -5637.000000)" fill-rule="nonzero">
            <g id="high-achiever" transform="translate(1531.000000, 5637.000000)">
                <circle id="Oval" fill="#F37121" cx="47.1413363" cy="47.1413363" r="47.1413363"></circle>
                <g id="Group" transform="translate(16.482558, 14.162790)">
                    <g transform="translate(10.866279, 5.982558)">
                        <polygon id="Path" fill="#60179C" points="7.52093008 20.6044182 7.45866264 59.7901732 19.4408717 51.5806385 31.9920342 60.1845337 32.2838366 21.1990112"></polygon>
                        <circle id="Oval" fill="#FCC400" cx="19.996395" cy="19.9512205" r="19.8852903"></circle>
                        <circle id="Oval" fill="#F79800" cx="19.996395" cy="19.9512205" r="16.8805811"></circle>
                        <circle id="Oval" fill="#FFFFFF" cx="19.9377903" cy="19.9817438" r="14.4729067"></circle>
                        <path d="M13.5816276,28.8090692 L14.5742439,22.12936 C14.590116,22.0194763 14.5522672,21.9083717 14.4704648,21.832674 L9.53058121,17.2285462 C9.32546493,17.0380811 9.429244,16.6949997 9.70517423,16.6486043 L16.3653485,15.5277904 C16.4752322,15.5094764 16.5680229,15.4386625 16.6156392,15.3373253 L19.4677322,9.21558121 C19.5861624,8.96162773 19.943895,8.95430215 20.0733136,9.20215098 L23.196453,15.1895927 C23.2477321,15.2884881 23.3441856,15.3544183 23.4552902,15.3690695 L30.1581971,16.1907555 C30.4353482,16.2249415 30.5537785,16.5619183 30.3584296,16.7621508 L25.6297669,21.5836042 C25.5516274,21.6629647 25.5186623,21.7752903 25.5394181,21.8839531 L26.8299413,28.5123832 C26.8836623,28.7870925 26.5991855,29.0031971 26.3476739,28.8786622 L20.3016275,25.8702902 C20.2027322,25.820232 20.0843019,25.8238948 19.9878484,25.8776158 L14.082209,29.1533715 C13.8343602,29.2901157 13.540116,29.0862204 13.5816276,28.8090692 Z" id="Path" fill="#FCC400"></path>
                    </g>
                    <circle id="Oval" fill="#FCC400" cx="1.38331393" cy="36.5070342" r="1.32715114"></circle>
                    <circle id="Oval" fill="#F7F0DC" cx="58.4031965" cy="15.9221508" r="1.20017439"></circle>
                    <circle id="Oval" fill="#F7F0DC" cx="30.8626738" cy="1.21360463" r="1.20017439"></circle>
                    <circle id="Oval" fill="#F7F0DC" cx="13.4277904" cy="43.0939526" r="1.20017439"></circle>
                    <circle id="Oval" fill="#FCC400" cx="56.4228477" cy="26.9984297" r="1.17087207"></circle>
                    <circle id="Oval" fill="#FCC400" cx="48.3769176" cy="7.33656962" r="1.34912788"></circle>
                    <circle id="Oval" fill="#F7F0DC" cx="4.27325573" cy="21.3748252" r="1.56279067"></circle>
                    <polygon id="Path" fill="#FCC400" points="10.462151 8.95308122 10.462151 5.98744174 8.81877889 5.98744174 8.81877889 8.95308122 5.85436035 8.95308122 5.85436035 10.5952323 8.81877889 10.5952323 8.81877889 13.5608718 10.462151 13.5608718 10.462151 10.5952323 13.4277904 10.5952323 13.4277904 8.95308122"></polygon>
                    <polygon id="Path" fill="#FCC400" points="53.4950571 42.0244178 53.4950571 38.1638365 51.3559874 38.1638365 51.3559874 42.0244178 47.495406 42.0244178 47.495406 44.1647084 51.3559874 44.1647084 51.3559874 48.0252897 53.4950571 48.0252897 53.4950571 44.1647084 57.3556384 44.1647084 57.3556384 42.0244178"></polygon>
                </g>
            </g>
        </g>
    </g>
</svg>