<?xml version="1.0" encoding="UTF-8"?>
<svg width="169px" height="135px" viewBox="0 0 169 135" version="1.1" xmlns="http://www.w3.org/2000/svg" xmlns:xlink="http://www.w3.org/1999/xlink">
    <!-- Generator: sketchtool 62 (101010) - https://sketch.com -->
    <title>8B5FBDCC-4611-4554-AFB8-D67A4066B5FE</title>
    <desc>Created with sketchtool.</desc>
    <defs>
        <circle id="path-1" cx="67.3919989" cy="67.3919989" r="67.3919989"></circle>
        <rect id="path-3" x="0" y="0" width="62.6688005" height="29.3760002" rx="14.6880001"></rect>
        <filter x="-6.4%" y="-6.8%" width="112.8%" height="127.2%" filterUnits="objectBoundingBox" id="filter-4">
            <feOffset dx="0" dy="2" in="SourceAlpha" result="shadowOffsetOuter1"></feOffset>
            <feGaussianBlur stdDeviation="1" in="shadowOffsetOuter1" result="shadowBlurOuter1"></feGaussianBlur>
            <feColorMatrix values="0 0 0 0 0   0 0 0 0 0   0 0 0 0 0  0 0 0 0.137237762 0" type="matrix" in="shadowBlurOuter1"></feColorMatrix>
        </filter>
    </defs>
    <g id="Page-1" stroke="none" stroke-width="1" fill="none" fill-rule="evenodd">
        <g id="How-it-Works" transform="translate(-626.000000, -365.000000)">
            <g id="Group-25" transform="translate(626.000000, 365.000000)">
                <g id="avatar-circle">
                    <mask id="mask-2" fill="white">
                        <use xlink:href="#path-1"></use>
                    </mask>
                    <use id="background-circle" fill="#F5F5F8" xlink:href="#path-1"></use>
                    <g id="body" mask="url(#mask-2)">
                        <g transform="translate(7.488225, 26.208112)" id="body/dark-brown">
                            <g transform="translate(0.000000, 0.000000)">
                                <path d="M108.936545,92.9391825 C104.963413,87.1917682 99.1059248,83.0142131 92.3779569,81.1294835 L76.7516244,76.7519988 L76.7516244,65.5203733 C83.3575379,60.5580758 87.6957106,52.7492151 87.9622834,43.9159961 C88.8855538,44.3229689 89.9046705,44.5535993 90.9791985,44.5535993 C95.1144465,44.5535993 98.4671984,41.2012217 98.4671984,37.0655994 C98.4671984,32.9299771 95.1144465,29.5775995 90.9791985,29.5775995 C89.9132817,29.5775995 88.901653,29.8033627 87.9839986,30.2047195 L87.9839986,28.0799995 C87.9839986,12.571603 75.4120212,0 59.903999,0 L59.9036246,0 C44.3956025,0 31.8239995,12.571603 31.8239995,28.0799995 L31.8239995,30.2047195 C30.9059707,29.8033627 29.8943419,29.5775995 28.8287995,29.5775995 C24.6931772,29.5775995 21.3407997,32.9299771 21.3407997,37.0655994 C21.3407997,41.2012217 24.6931772,44.5535993 28.8287995,44.5535993 C29.9029531,44.5535993 30.9220699,44.3233433 31.8457147,43.9159961 C32.1119131,52.7492151 36.4500858,60.5580758 43.0556249,65.5203733 L43.0556249,76.7519988 L27.4296668,81.1294835 C20.7016989,83.0142131 14.844211,87.1917682 10.8710782,92.9391825 L2.12821757e-14,108.665854 L2.12821757e-14,119.807998 L119.807998,119.807998 L119.807998,108.665854 L108.936545,92.9391825 Z" id="Fill-1" fill="#FFCF83"></path>
                                <path d="M59.9036621,71.1358491 C56.4412109,71.1358491 53.1270222,70.5053595 50.0644302,69.3593211 C54.4201998,72.1418619 59.5929101,73.756649 65.145262,73.756649 C69.2861259,73.756649 73.2132075,72.8532219 76.7516618,71.2444251 L76.7516618,65.5202236 C72.0585579,69.0455739 66.225406,71.1358491 59.9036621,71.1358491 Z" id="Fill-4" fill="#F7A74F"></path>
                                <path d="M32.8006593,38.1582858 C32.8961313,37.8104682 32.9474241,37.4439306 32.9474241,37.0657866 C32.9474241,34.7913066 31.1035041,32.9473867 28.8290242,32.9473867 C28.2603106,32.9473867 27.7185538,33.0627019 27.2258434,33.2708683" id="Stroke-6" stroke="#00004D" stroke-width="0.748799988" stroke-linecap="round" stroke-linejoin="round"></path>
                                <path d="M87.0073013,38.1582858 C86.9118293,37.8104682 86.8609109,37.4439306 86.8609109,37.0657866 C86.8609109,34.7913066 88.7048309,32.9473867 90.9793108,32.9473867 C91.54765,32.9473867 92.0894068,33.0627019 92.5824916,33.2708683" id="Stroke-8" stroke="#00004D" stroke-width="0.748799988" stroke-linecap="round" stroke-linejoin="round"></path>
                            </g>
                        </g>
                    </g>
                    <g id="mouth" mask="url(#mask-2)" fill="#FFFFFF">
                        <g transform="translate(52.415887, 76.568326)" id="default">
                            <path d="M22.4640371,3.55668762 C22.4640371,7.69230996 19.1116595,11.0446875 14.9760372,11.0446875 C10.8404149,11.0446875 7.48803732,7.69230996 7.48803732,3.55668762 L22.4640371,3.55668762 Z"></path>
                        </g>
                    </g>
                    <g id="eyes" mask="url(#mask-2)" fill="#00004D">
                        <g transform="translate(48.671999, 56.908762)">
                            <path d="M34.0705866,7.48799988 C34.0705866,9.14209905 32.7294859,10.4831998 31.0753867,10.4831998 C29.4212875,10.4831998 28.0801867,9.14209905 28.0801867,7.48799988 C28.0801867,5.83390071 29.4212875,4.49279993 31.0753867,4.49279993 C32.7294859,4.49279993 34.0705866,5.83390071 34.0705866,7.48799988" id="eye-right"></path>
                            <path d="M9.35999985,7.48799988 C9.35999985,9.14209905 8.01889907,10.4831998 6.3647999,10.4831998 C4.71070072,10.4831998 3.36959995,9.14209905 3.36959995,7.48799988 C3.36959995,5.83390071 4.71070072,4.49279993 6.3647999,4.49279993 C8.01889907,4.49279993 9.35999985,5.83390071 9.35999985,7.48799988" id="eye-left"></path>
                        </g>
                    </g>
                    <g id="nose" mask="url(#mask-2)" stroke="#00004D" stroke-linecap="round" stroke-linejoin="round" stroke-width="0.748799988">
                        <g transform="translate(61.027087, 56.908762)">
                            <polyline points="6.3647999 4.49279993 10.1087998 17.2223997 4.86719992 17.9711997"></polyline>
                        </g>
                    </g>
                    <g id="head" mask="url(#mask-2)" fill="#00004D">
                        <path d="M97.3439984,55.8787498 L97.3439984,54.2879242 C97.3439984,49.4229707 96.1826096,44.8298316 94.1241585,40.7683405 C95.0530449,39.7937773 95.924648,38.7521965 96.7269872,37.6413517 L97.9254416,35.9816365 C99.554456,33.7266254 98.2418096,30.545723 95.4967089,30.0953198 L71.505906,26.1588783 C53.7275223,23.2419279 37.574409,36.9610669 37.574409,54.9768202 L37.574409,55.8993418 C39.6047802,56.2437898 41.3573465,57.3988138 42.4812953,59.0270794 L45.8688665,45.5707692 L66.8947957,49.5367883 C74.6737044,51.0036875 82.5514547,49.3136459 88.9331026,45.107262 L92.4037905,58.8926698 C93.5554449,57.3010954 95.3147505,56.1846346 97.3439984,55.8787498" id="short-13"></path>
                    </g>
                    <g id="clothing" mask="url(#mask-2)">
                        <g transform="translate(7.488000, 93.599998)" id="turtleneck">
                            <g>
                                <path d="M119.807998,41.2739677 L108.93692,25.5472959 C104.963787,19.800256 99.1062992,15.6223265 92.3779569,13.7375969 L78.6239987,9.88427216 L78.6239987,1.87211229 C78.6239987,0.838019506 77.7860915,0.000112319998 76.7519988,0.000112319998 L76.7519988,1.87248669 C72.0588948,5.39783703 66.2257429,7.4881122 59.903999,7.4881122 C53.5822551,7.4881122 47.7491032,5.39783703 43.0559993,1.87248669 L43.0559993,0.000112319998 C42.0219065,0.000112319998 41.1839993,0.838019506 41.1839993,1.87211229 L41.1839993,9.88427216 L27.4300412,13.7375969 C20.7016989,15.6223265 14.844211,19.800256 10.8710782,25.5472959 L0,41.2735933 L0,52.4161115 L119.807998,52.4161115 L119.807998,41.2739677 Z" id="Fill-1" fill="#FFCA00"></path>
                                <path d="M69.8098741,15.238529 C66.7289365,16.4002922 63.3907862,17.035649 59.903999,17.035649 C52.7117751,17.035649 46.1507897,14.3313578 41.1828761,9.88423472" id="Stroke-4" stroke="#00004D" stroke-width="0.748799988" stroke-linecap="round" stroke-linejoin="round"></path>
                            </g>
                        </g>
                    </g>
                    <g id="facial-hair" mask="url(#mask-2)">
                        <g transform="translate(33.695999, 68.306471)"></g>
                    </g>
                    <g id="accessories" mask="url(#mask-2)">
                        <g transform="translate(37.440224, 50.543999)"></g>
                    </g>
                </g>
                <g id="Group-9-Copy-2" transform="translate(104.000000, 12.000000)">
                    <g id="Rectangle-Copy-14">
                        <use fill="black" fill-opacity="1" filter="url(#filter-4)" xlink:href="#path-3"></use>
                        <use fill="#FFFFFF" fill-rule="evenodd" xlink:href="#path-3"></use>
                    </g>
                    <circle id="Oval" fill="#00CB75" cx="15.6672001" cy="14.6880001" r="3.91680003"></circle>
                    <text id="Live" font-family="SFProDisplay-Medium, SF Pro Display" font-size="13.7088001" font-weight="400" line-spacing="22.5216002" letter-spacing="0.257039985" fill="#25253B">
                        <tspan x="26.4384002" y="15.9376">Live</tspan>
                    </text>
                </g>
            </g>
        </g>
    </g>
</svg>