<?xml version="1.0" encoding="UTF-8"?>
<svg width="173px" height="161px" viewBox="0 0 173 161" version="1.1" xmlns="http://www.w3.org/2000/svg" xmlns:xlink="http://www.w3.org/1999/xlink">
    <!-- Generator: sketchtool 62 (101010) - https://sketch.com -->
    <title>2EF54AF2-E8E0-4138-8930-1D0A1F9633BA</title>
    <desc>Created with sketchtool.</desc>
    <g id="Page-1" stroke="none" stroke-width="1" fill="none" fill-rule="evenodd">
        <g id="How-it-Works" transform="translate(-898.000000, -358.000000)">
            <g id="Group-5" transform="translate(898.000000, 358.000000)">
                <g id="message">
                    <path d="M13.1270907,-1.43718431e-15 L159.032889,5.30350174e-16 C163.597464,-3.08148724e-16 165.25269,0.475267072 166.92143,1.36771928 C168.590171,2.26017149 169.899808,3.56980883 170.79226,5.23854937 C171.684712,6.90728992 172.159979,8.56251526 172.159979,13.1270907 L172.159979,58.8729093 C172.159979,63.4374847 171.684712,65.0927101 170.79226,66.7614506 C169.899808,68.4301912 168.590171,69.7398285 166.92143,70.6322807 C165.25269,71.5247329 163.597464,72 159.032889,72 L0.307665931,72 C0.200683784,72 0.161889472,71.9888609 0.122778398,71.9679441 C0.0836673247,71.9470273 0.0529727251,71.9163327 0.0320558939,71.8772216 C0.0111390627,71.8381105 -3.41794192e-18,71.7993162 5.88256887e-18,71.6923341 L3.53566783e-16,13.1270907 C-2.05432483e-16,8.56251526 0.475267072,6.90728992 1.36771928,5.23854937 C2.26017149,3.56980883 3.56980883,2.26017149 5.23854937,1.36771928 C6.90728992,0.475267072 8.56251526,8.35045474e-16 13.1270907,-1.43718431e-15 Z" id="Rectangle-Copy" fill="#F5F5F8"></path>
                    <text id="I’m-connecting-you-w" font-family="Inter" font-size="10.8799987" font-weight="normal" line-spacing="15.3599982" letter-spacing="0.20399996" fill="#150026">
                        <tspan x="10.2399988" y="16.1199994">I’m connecting you with a </tspan>
                        <tspan x="10.2399988" y="31.4799976">tutor. Meanwhile can you tell </tspan>
                        <tspan x="10.2399988" y="46.8399957">me more about your </tspan>
                        <tspan x="10.2399988" y="62.1999939">problem?</tspan>
                    </text>
                </g>
                <g id="message-copy-2" transform="translate(0.000000, 117.000000)">
                    <path d="M13.1270907,3.76483965e-16 L159.032889,5.30350174e-16 C163.597464,-3.08148724e-16 165.25269,0.475267072 166.92143,1.36771928 C168.590171,2.26017149 169.899808,3.56980883 170.79226,5.23854937 C171.684712,6.90728992 172.159979,8.56251526 172.159979,13.1270907 L172.159979,30.8729093 C172.159979,35.4374847 171.684712,37.0927101 170.79226,38.7614506 C169.899808,40.4301912 168.590171,41.7398285 166.92143,42.6322807 C165.25269,43.5247329 163.597464,44 159.032889,44 L0.307665931,44 C0.200683784,44 0.161889472,43.9888609 0.122778398,43.9679441 C0.0836673247,43.9470273 0.0529727251,43.9163327 0.0320558939,43.8772216 C0.0111390627,43.8381105 -3.41794192e-18,43.7993162 5.88256887e-18,43.6923341 L3.53566783e-16,13.1270907 C-2.05432483e-16,8.56251526 0.475267072,6.90728992 1.36771928,5.23854937 C2.26017149,3.56980883 3.56980883,2.26017149 5.23854937,1.36771928 C6.90728992,0.475267072 8.56251526,-2.18748026e-16 13.1270907,3.76483965e-16 Z" id="Rectangle-Copy" fill="#F5F5F8"></path>
                    <text id="Hey-Jenna,-Send-me-y" font-family="Inter" font-size="10.8799987" font-weight="normal" line-spacing="15.3599982" letter-spacing="0.20399996" fill="#150026">
                        <tspan x="10.2399988" y="16.1199994">Hey Jenna,</tspan>
                        <tspan x="10.2399988" y="31.4799976">Send me your problem.</tspan>
                        <tspan x="10.2399988" y="46.8399957"></tspan>
                    </text>
                </g>
                <g id="message-copy" transform="translate(8.959999, 80.719993)">
                    <path d="M0,0.280007477 L149.439982,0.280007477 C151.973128,0.280007477 154.346399,0.964514267 156.384917,2.15865063 C158.423435,3.35278698 160.127201,5.05655291 161.321337,7.09507119 C162.515474,9.13358946 163.199981,11.5068601 163.199981,14.0400058 C163.199981,16.5731516 162.515474,18.9464222 161.321337,20.9849405 C160.127201,23.0234588 158.423435,24.7272247 156.384917,25.921361 C154.346399,27.1154974 151.973128,27.8000042 149.439982,27.8000042 L17.6395281,27.8000042 C11.5058799,27.8000042 9.28167082,27.1613641 7.03930072,25.9621314 C4.79693062,24.7628988 3.03710544,23.0030736 1.83787278,20.7607035 C0.638640129,18.5183334 1.85674015e-15,16.2941243 -3.19560778e-15,10.1604761 L0,0.280007477 L0,0.280007477 Z" id="Rectangle-Copy-3" fill="#60179C" transform="translate(81.599990, 14.040006) scale(-1, 1) translate(-81.599990, -14.040006) "></path>
                    <text id="I-have-the-math-prob" font-family="Inter" font-size="10.8799987" font-weight="normal" line-spacing="15.3599982" fill="#FFFFFF">
                        <tspan x="18.3391072" y="16.4000069">I have the math problem.</tspan>
                    </text>
                </g>
            </g>
        </g>
    </g>
</svg>